<?xml version="1.0" encoding="UTF-8" standalone="no"?>
<svg
   xmlns:dc="http://purl.org/dc/elements/1.1/"
   xmlns:cc="http://creativecommons.org/ns#"
   xmlns:rdf="http://www.w3.org/1999/02/22-rdf-syntax-ns#"
   xmlns:svg="http://www.w3.org/2000/svg"
   xmlns="http://www.w3.org/2000/svg"
   xmlns:xlink="http://www.w3.org/1999/xlink"
   xmlns:sodipodi="http://sodipodi.sourceforge.net/DTD/sodipodi-0.dtd"
   xmlns:inkscape="http://www.inkscape.org/namespaces/inkscape"
   inkscape:version="1.0 (4035a4fb49, 2020-05-01)"
   sodipodi:docname="checklist.svg"
   version="1.1"
   viewBox="0 0 873.56 795"
   height="795"
   width="873.56"
   data-name="Layer 1"
   id="629dcec7-c063-4496-b40c-d8a33d01e794">
  <metadata
     id="metadata154">
    <rdf:RDF>
      <cc:Work
         rdf:about="">
        <dc:format>image/svg+xml</dc:format>
        <dc:type
           rdf:resource="http://purl.org/dc/dcmitype/StillImage" />
        <dc:title>customer survey</dc:title>
      </cc:Work>
    </rdf:RDF>
  </metadata>
  <sodipodi:namedview
     inkscape:current-layer="629dcec7-c063-4496-b40c-d8a33d01e794"
     inkscape:window-maximized="1"
     inkscape:window-y="-8"
     inkscape:window-x="1912"
     inkscape:cy="322.76439"
     inkscape:cx="436.78"
     inkscape:zoom="1.0704403"
     showgrid="false"
     id="namedview152"
     inkscape:window-height="1027"
     inkscape:window-width="1920"
     inkscape:pageshadow="2"
     inkscape:pageopacity="0"
     guidetolerance="10"
     gridtolerance="10"
     objecttolerance="10"
     borderopacity="1"
     bordercolor="#666666"
     pagecolor="#ffffff" />
  <defs
     id="defs27">
    <linearGradient
       gradientUnits="userSpaceOnUse"
       y2="55"
       x2="441"
       y1="598"
       x1="441"
       id="1ad885a6-086f-4584-b8fc-49709722d9e2">
      <stop
         id="stop10"
         stop-opacity="0.25"
         stop-color="gray"
         offset="0" />
      <stop
         id="stop12"
         stop-opacity="0.12"
         stop-color="gray"
         offset="0.54" />
      <stop
         id="stop14"
         stop-opacity="0.1"
         stop-color="gray"
         offset="1" />
    </linearGradient>
    <linearGradient
       xlink:href="#1ad885a6-086f-4584-b8fc-49709722d9e2"
       y2="44.98"
       x2="441.5"
       y1="91"
       x1="441.5"
       id="6f115915-dfc3-4eba-8ca8-4e2bf8885e02" />
    <linearGradient
       xlink:href="#1ad885a6-086f-4584-b8fc-49709722d9e2"
       y2="52.5"
       x2="604.72"
       y1="106.89"
       x1="604.72"
       id="4923b0dd-8e96-4c93-b583-a6b0ce88de70" />
    <linearGradient
       xlink:href="#1ad885a6-086f-4584-b8fc-49709722d9e2"
       y2="145"
       x2="308.5"
       y1="227"
       x1="308.5"
       id="ea587278-d59f-43ad-bda4-771cfa902fd4" />
    <linearGradient
       xlink:href="#1ad885a6-086f-4584-b8fc-49709722d9e2"
       y2="307.5"
       x2="308.78"
       y1="389.5"
       x1="308.78"
       id="e2b55b91-c252-4605-a1d1-0f99b0ab4047" />
    <linearGradient
       xlink:href="#1ad885a6-086f-4584-b8fc-49709722d9e2"
       y2="468"
       x2="309.06"
       y1="550"
       x1="309.06"
       id="76544af5-6047-4a4c-b2fc-a23f66c9d65b" />
    <linearGradient
       xlink:href="#1ad885a6-086f-4584-b8fc-49709722d9e2"
       y2="165.37"
       x2="308.5"
       y1="205.63"
       x1="308.5"
       id="daf008b2-47be-48c6-a376-1f125493a331" />
    <linearGradient
       xlink:href="#1ad885a6-086f-4584-b8fc-49709722d9e2"
       y2="42"
       x2="796.5"
       y1="193"
       x1="796.5"
       id="ebbb3683-2e35-4ba5-aa17-65e675e22e58" />
    <linearGradient
       xlink:href="#1ad885a6-086f-4584-b8fc-49709722d9e2"
       y2="69"
       x2="796.5"
       y1="176"
       x1="796.5"
       id="3d5714ec-ccf4-45ec-9ad7-6b8d237940bd" />
    <linearGradient
       xlink:href="#1ad885a6-086f-4584-b8fc-49709722d9e2"
       y2="620"
       x2="628"
       y1="795"
       x1="628"
       id="77e7c8c2-0f5e-4b8d-920a-2630d282c2c9" />
    <linearGradient
       xlink:href="#1ad885a6-086f-4584-b8fc-49709722d9e2"
       y2="319.75"
       x2="102"
       y1="464.25"
       x1="102"
       id="a6898519-96e7-44e1-b71e-df9c3f17d463" />
  </defs>
  <title
     id="title29">customer survey</title>
  <g
     id="g33"
     opacity="0.5">
    <rect
       id="rect31"
       fill="url(#1ad885a6-086f-4584-b8fc-49709722d9e2)"
       height="543"
       width="393"
       y="55"
       x="244.5" />
  </g>
  <rect
     id="rect35"
     fill="#fff"
     height="531"
     width="383"
     y="59"
     x="249.5" />
  <rect
     id="rect37"
     fill="url(#6f115915-dfc3-4eba-8ca8-4e2bf8885e02)"
     height="46.02"
     width="190"
     y="44.98"
     x="346.5" />
  <path
     id="path39"
     fill="url(#4923b0dd-8e96-4c93-b583-a6b0ce88de70)"
     transform="translate(-163.22 -52.5)"
     d="M604.72,52.5c-14.67,0-26.56,12.18-26.56,27.2s11.89,27.2,26.56,27.2,26.56-12.18,26.56-27.2S619.39,52.5,604.72,52.5Zm0,42.89A15.69,15.69,0,1,1,620,79.7,15.51,15.51,0,0,1,604.72,95.39Z" />
  <rect
     id="rect41"
     fill="#6c63ff"
     height="44"
     width="186"
     y="45"
     x="348.5" />
  <path
     id="path43"
     fill="#6c63ff"
     transform="translate(-163.22 -52.5)"
     d="M604.72,54.5a26,26,0,1,0,26,26A26,26,0,0,0,604.72,54.5Zm0,41a15,15,0,1,1,15-15A15,15,0,0,1,604.72,95.5Z" />
  <rect
     id="rect45"
     fill="url(#ea587278-d59f-43ad-bda4-771cfa902fd4)"
     height="82"
     width="82"
     y="145"
     x="267.5" />
  <rect
     id="rect47"
     fill="url(#e2b55b91-c252-4605-a1d1-0f99b0ab4047)"
     height="82"
     width="82"
     y="307.5"
     x="267.78" />
  <rect
     id="rect49"
     fill="url(#76544af5-6047-4a4c-b2fc-a23f66c9d65b)"
     height="82"
     width="82"
     y="468"
     x="268.06" />
  <rect
     id="rect51"
     fill="#69f0ae"
     height="76"
     width="76"
     y="148"
     x="270.5" />
  <rect
     id="rect53"
     fill="#6c63ff"
     height="76"
     width="76"
     y="309"
     x="270.5" />
  <rect
     id="rect55"
     fill="#6c63ff"
     height="76"
     width="76"
     y="470"
     x="270.5" />
  <rect
     id="rect57"
     fill="#e0e0e0"
     height="7.27"
     width="104.17"
     y="171.46"
     x="396.5" />
  <rect
     id="rect59"
     fill="#e0e0e0"
     height="7.27"
     width="172"
     y="182.37"
     x="396.5" />
  <rect
     id="rect61"
     fill="#e0e0e0"
     height="7.27"
     width="159.89"
     y="193.27"
     x="396.5" />
  <rect
     id="rect63"
     fill="#e0e0e0"
     height="7.27"
     width="104.17"
     y="332.46"
     x="396.5" />
  <rect
     id="rect65"
     fill="#e0e0e0"
     height="7.27"
     width="172"
     y="343.37"
     x="396.5" />
  <rect
     id="rect67"
     fill="#e0e0e0"
     height="7.27"
     width="159.89"
     y="354.27"
     x="396.5" />
  <rect
     id="rect69"
     fill="#e0e0e0"
     height="7.27"
     width="104.17"
     y="493.46"
     x="396.5" />
  <rect
     id="rect71"
     fill="#e0e0e0"
     height="7.27"
     width="172"
     y="504.37"
     x="396.5" />
  <rect
     id="rect73"
     fill="#e0e0e0"
     height="7.27"
     width="159.89"
     y="515.27"
     x="396.5" />
  <polygon
     id="polygon75"
     fill="url(#daf008b2-47be-48c6-a376-1f125493a331)"
     points="291.25 181.47 305.05 194.13 324.6 165.38 331.5 171.13 305.05 205.63 285.5 183.78 291.25 181.47" />
  <polygon
     id="polygon77"
     fill="#fff"
     points="293.5 182 305.5 193 322.5 168 328.5 173 305.5 203 288.5 184 293.5 182" />
  <polygon
     id="polygon79"
     fill="#fff"
     points="293.5 344 305.5 355 322.5 330 328.5 335 305.5 365 288.5 346 293.5 344" />
  <polygon
     id="polygon81"
     fill="#fff"
     points="293.5 506 305.5 517 322.5 492 328.5 497 305.5 527 288.5 508 293.5 506" />
</svg>
