<?xml version="1.0" encoding="UTF-8" standalone="no"?>
<svg
   xmlns:dc="http://purl.org/dc/elements/1.1/"
   xmlns:cc="http://creativecommons.org/ns#"
   xmlns:rdf="http://www.w3.org/1999/02/22-rdf-syntax-ns#"
   xmlns:svg="http://www.w3.org/2000/svg"
   xmlns="http://www.w3.org/2000/svg"
   xmlns:sodipodi="http://sodipodi.sourceforge.net/DTD/sodipodi-0.dtd"
   xmlns:inkscape="http://www.inkscape.org/namespaces/inkscape"
   id="a6f4e524-a1b8-434a-a0ca-43acb27f4769"
   data-name="Layer 1"
   width="916.22998"
   height="770.66998"
   viewBox="0 0 916.23001 770.66999"
   version="1.1"
   sodipodi:docname="prototyping_process_rswj2.svg"
   inkscape:version="0.92.4 (5da689c313, 2019-01-14)">
  <metadata
     id="metadata5879">
    <rdf:RDF>
      <cc:Work
         rdf:about="">
        <dc:format>image/svg+xml</dc:format>
        <dc:type
           rdf:resource="http://purl.org/dc/dcmitype/StillImage" />
        <dc:title>prototyping process</dc:title>
      </cc:Work>
    </rdf:RDF>
  </metadata>
  <sodipodi:namedview
     pagecolor="#ffffff"
     bordercolor="#666666"
     borderopacity="1"
     objecttolerance="10"
     gridtolerance="10"
     guidetolerance="10"
     inkscape:pageopacity="0"
     inkscape:pageshadow="2"
     inkscape:window-width="1920"
     inkscape:window-height="1018"
     id="namedview5877"
     showgrid="false"
     inkscape:zoom="0.77827256"
     inkscape:cx="507.37408"
     inkscape:cy="429.97085"
     inkscape:window-x="-8"
     inkscape:window-y="-8"
     inkscape:window-maximized="1"
     inkscape:current-layer="a6f4e524-a1b8-434a-a0ca-43acb27f4769"
     fit-margin-top="0"
     fit-margin-left="0"
     fit-margin-right="0"
     fit-margin-bottom="0" />
  <defs
     id="defs5656">
    <linearGradient
       id="ed123d47-1cc8-43ee-8efc-264e01b6d696"
       x1="2277.26"
       y1="874.51001"
       x2="2277.26"
       y2="331.66"
       gradientTransform="translate(-2146,-108.17)"
       gradientUnits="userSpaceOnUse">
      <stop
         offset="0"
         stop-color="gray"
         stop-opacity="0.25"
         id="stop5649" />
      <stop
         offset="0.54"
         stop-color="gray"
         stop-opacity="0.12"
         id="stop5651" />
      <stop
         offset="1"
         stop-color="gray"
         stop-opacity="0.1"
         id="stop5653" />
    </linearGradient>
  </defs>
  <title
     id="title5658">prototyping process</title>
  <ellipse
     cx="237.5"
     cy="734.66998"
     rx="237.5"
     ry="36"
     id="ellipse5660"
     style="opacity:0.1;fill:#6c63ff" />
  <rect
     x="402.22998"
     y="0"
     width="514"
     height="618.96997"
     rx="19.799999"
     id="rect5670"
     style="fill:#464353" />
  <rect
     x="446.56998"
     y="62.439995"
     width="425.32001"
     height="494.09"
     id="rect5672"
     style="opacity:1;fill:#f5f7ff;fill-opacity:0.94117647" />
  <circle
     cx="659.22998"
     cy="589.10999"
     r="18.1"
     id="circle5674"
     style="fill:#ffffff" />
  <path
     d="m 659.22999,44.749998 a 8.55,8.55 0 1 1 8.55,-8.55 8.57,8.57 0 0 1 -8.55,8.55 z"
     id="path5676"
     inkscape:connector-curvature="0"
     style="fill:#ffffff" />
  <path
     d="m 659.22999,28.149998 a 8.05,8.05 0 1 1 -8.05,8.05 8.06,8.06 0 0 1 8.05,-8.05 m 0,-1 a 9.05,9.05 0 1 0 9,9.05 9,9 0 0 0 -9,-9.05 z"
     id="path5678"
     inkscape:connector-curvature="0"
     style="fill:#ffffff" />
  <rect
     x="466.32999"
     y="215.5"
     width="88.209999"
     height="119.92"
     rx="4.3000002"
     stroke-miterlimit="10"
     id="rect5680"
     style="fill:#ffffff;stroke:#ffffff;stroke-miterlimit:10" />
  <rect
     x="474.60001"
     y="245.72"
     width="71.669998"
     height="38.049999"
     rx="7.1399999"
     id="rect5682"
     style="opacity:0.5;fill:#6c63ff" />
  <rect
     x="489.55997"
     y="299.28998"
     width="41.75"
     height="5.9099998"
     rx="1.6900001"
     id="rect5684"
     style="fill:#6c63ff" />
  <rect
     x="615.45996"
     y="215.5"
     width="88.209999"
     height="119.92"
     rx="4.3000002"
     stroke-miterlimit="10"
     id="rect5686"
     style="fill:#ffffff;stroke:#ffffff;stroke-miterlimit:10" />
  <rect
     x="638.66003"
     y="234.22998"
     width="42.27"
     height="22.440001"
     rx="1.46"
     id="rect5688"
     style="opacity:0.5;fill:#6c63ff" />
  <rect
     x="632.47998"
     y="277.69998"
     width="53.959999"
     height="5.9099998"
     rx="1.6900001"
     id="rect5690"
     style="fill:#6c63ff" />
  <rect
     x="632.47998"
     y="288.72"
     width="53.959999"
     height="5.9099998"
     rx="1.6900001"
     id="rect5692"
     style="fill:#6c63ff" />
  <rect
     x="763.92004"
     y="130.31"
     width="88.209999"
     height="119.92"
     rx="4.3000002"
     stroke-miterlimit="10"
     id="rect5694"
     style="fill:#ffffff;stroke:#ffffff;stroke-miterlimit:10" />
  <rect
     x="779.30994"
     y="148.91998"
     width="57.43"
     height="26.799999"
     rx="1.46"
     id="rect5696"
     style="opacity:0.5;fill:#6c63ff" />
  <rect
     x="779.30994"
     y="187.87"
     width="57.43"
     height="26.799999"
     rx="1.46"
     id="rect5698"
     style="opacity:0.5;fill:#6c63ff" />
  <rect
     x="774.71997"
     y="236.26999"
     width="18.84"
     height="8.2700005"
     rx="3.8299999"
     id="rect5700"
     style="fill:#6c63ff" />
  <rect
     x="798.60999"
     y="236.26999"
     width="18.84"
     height="8.2700005"
     rx="3.8299999"
     id="rect5702"
     style="fill:#6c63ff" />
  <rect
     x="822.5"
     y="236.26999"
     width="18.84"
     height="8.2700005"
     rx="3.8299999"
     id="rect5704"
     style="fill:#6c63ff" />
  <rect
     x="763.70996"
     y="300.69"
     width="88.209999"
     height="119.92"
     rx="4.3000002"
     stroke-miterlimit="10"
     id="rect5706"
     style="fill:#ffffff;stroke:#ffffff;stroke-miterlimit:10" />
  <rect
     x="770.52002"
     y="314.70999"
     width="26.360001"
     height="26.799999"
     rx="1.46"
     id="rect5708"
     style="opacity:0.5;fill:#6c63ff" />
  <rect
     x="780.83997"
     y="357.82999"
     width="53.959999"
     height="5.9099998"
     rx="1.6900001"
     id="rect5710"
     style="fill:#6c63ff" />
  <rect
     x="780.83997"
     y="369.78"
     width="53.959999"
     height="5.9099998"
     rx="1.6900001"
     id="rect5712"
     style="fill:#6c63ff" />
  <rect
     x="780.83997"
     y="381.72998"
     width="53.959999"
     height="5.9099998"
     rx="1.6900001"
     id="rect5714"
     style="fill:#6c63ff" />
  <path
     d="m 605.28999,272.6 -1.35,0.65 -10.94,5.26 -1,0.47 a 0.54,0.54 0 0 1 -0.73,-0.29 0.59,0.59 0 0 1 0,-0.2 v -3.11 a 0.53,0.53 0 0 0 -0.53,-0.53 h -26.59 a 0.54,0.54 0 0 1 -0.54,-0.53 v -4.39 a 0.54,0.54 0 0 1 0.54,-0.53 h 26.62 a 0.54,0.54 0 0 0 0.53,-0.54 v -3.18 a 0.65,0.65 0 0 1 0,-0.2 0.54,0.54 0 0 1 0.73,-0.28 l 1,0.47 10.91,5.31 1.35,0.66 a 0.53,0.53 0 0 1 0,0.96 z"
     stroke-miterlimit="10"
     id="path5716"
     inkscape:connector-curvature="0"
     style="fill:#ffffff;stroke:#ffffff;stroke-miterlimit:10" />
  <path
     d="m 753.31999,245.63 -0.88,1.21 -7.16,9.76 -0.63,0.87 a 0.55,0.55 0 0 1 -0.78,0.09 0.48,0.48 0 0 1 -0.12,-0.16 l -1.46,-2.74 a 0.55,0.55 0 0 0 -0.73,-0.23 l -23.5,12.51 a 0.53,0.53 0 0 1 -0.72,-0.22 l -2.06,-3.89 a 0.53,0.53 0 0 1 0.22,-0.72 l 23.5,-12.49 a 0.53,0.53 0 0 0 0.22,-0.72 l -1.49,-2.81 a 0.35,0.35 0 0 1 -0.06,-0.19 0.52,0.52 0 0 1 0.51,-0.59 h 1.07 l 12.12,-0.44 1.5,-0.05 a 0.53,0.53 0 0 1 0.45,0.81 z"
     stroke-miterlimit="10"
     id="path5718"
     inkscape:connector-curvature="0"
     style="fill:#ffffff;stroke:#ffffff;stroke-miterlimit:10" />
  <path
     d="m 753.23999,296.89 h -1.49 -12.11 -1.07 a 0.53,0.53 0 0 1 -0.53,-0.57 0.45,0.45 0 0 1 0.05,-0.19 l 1.34,-2.81 a 0.53,0.53 0 0 0 -0.25,-0.71 l -24,-11.52 a 0.54,0.54 0 0 1 -0.25,-0.72 l 1.9,-3.95 a 0.52,0.52 0 0 1 0.71,-0.25 l 24,11.53 a 0.55,0.55 0 0 0 0.72,-0.25 l 1.38,-2.87 a 0.52,0.52 0 0 1 0.89,-0.1 l 0.67,0.83 7.53,9.52 0.93,1.18 a 0.53,0.53 0 0 1 -0.42,0.88 z"
     stroke-miterlimit="10"
     id="path5720"
     inkscape:connector-curvature="0"
     style="fill:#ffffff;stroke:#ffffff;stroke-miterlimit:10" />
  <polygon
     points="419.01,789.65 410.43,789.65 414.64,609.58 414.72,606.2 424.19,606.65 424.11,609.58 "
     id="polygon5722"
     style="fill:#504f60"
     transform="translate(-109.23001,-87.010002)" />
  <polygon
     points="419.01,789.65 410.43,789.65 414.64,609.58 414.72,606.2 424.19,606.65 424.11,609.58 "
     id="polygon5724"
     style="opacity:0.1"
     transform="translate(-109.23001,-87.010002)" />
  <polygon
     points="371.97,758.97 366.89,758.96 369.59,750.61 473.16,750.61 473.84,759.19 467.42,759.17 "
     id="polygon5726"
     style="fill:#504f60"
     transform="translate(-109.23001,-87.010002)" />
  <polygon
     points="414.64,609.58 414.72,606.2 424.19,606.65 424.11,609.58 "
     id="polygon5728"
     style="opacity:0.1"
     transform="translate(-109.23001,-87.010002)" />
  <rect
     x="302.66998"
     y="515.23999"
     width="15.91"
     height="5.98"
     id="rect5730"
     style="fill:#504f60" />
  <polygon
     points="366.89,758.96 369.59,750.61 372.82,750.61 371.97,758.97 "
     id="polygon5732"
     style="opacity:0.1"
     transform="translate(-109.23001,-87.010002)" />
  <polygon
     points="365.08,813.56 355.38,813.11 377.69,604.73 377.94,602.36 386.52,602.14 386.25,604.73 "
     id="polygon5734"
     style="fill:#504f60"
     transform="translate(-109.23001,-87.010002)" />
  <polygon
     points="466.55,750.61 473.16,750.61 473.84,759.19 467.42,759.17 "
     id="polygon5736"
     style="opacity:0.1"
     transform="translate(-109.23001,-87.010002)" />
  <polygon
     points="453.12,604.73 452.86,602.14 461.43,602.36 461.68,604.73 484,813.11 474.29,813.56 "
     id="polygon5738"
     style="fill:#504f60"
     transform="translate(-109.23001,-87.010002)" />
  <rect
     x="202.14999"
     y="309.22"
     width="213.91"
     height="205.11"
     id="rect5740"
     style="fill:#ffffff" />
  <rect
     x="155.22998"
     y="309.22"
     width="308"
     height="205.11"
     rx="4.1300001"
     id="rect5742"
     style="fill:#ffffff;stroke:#7066ff;stroke-opacity:0.09803922" />
  <path
     d="m 313.26999,240.63 v 49.53 h -8.34 v -49.53 a 4.17,4.17 0 1 1 8.34,0 z"
     id="path5744"
     inkscape:connector-curvature="0"
     style="fill:#504f60" />
  <rect
     x="304.92999"
     y="285.64999"
     width="8.3500004"
     height="4.5100002"
     id="rect5746"
     style="opacity:0.1" />
  <path
     d="m 316.54999,289.03 v 16.36 h -14.89 v -16.36 a 2,2 0 0 1 2,-2 h 10.83 a 2,2 0 0 1 2.06,2 z"
     id="path5748"
     inkscape:connector-curvature="0"
     style="fill:#504f60" />
  <circle
     cx="309.09998"
     cy="297.38"
     r="3.1600001"
     id="circle5750"
     style="opacity:0.1" />
  <circle
     cx="309.09998"
     cy="296.69998"
     r="3.1600001"
     id="circle5752"
     style="fill:#3f3d56" />
  <rect
     x="301.66"
     y="303.35999"
     width="14.89"
     height="2.03"
     id="rect5754"
     style="opacity:0.1" />
  <rect
     x="295.56"
     y="306.06998"
     width="27.08"
     height="4.5100002"
     id="rect5756"
     style="opacity:0.1" />
  <rect
     x="295.56"
     y="304.70999"
     width="27.08"
     height="4.5100002"
     id="rect5758"
     style="fill:#504f60" />
  <path
     d="m 255.39999,508.99 h 111.58 a 6,6 0 0 1 6,6 v 0 h -123.56 v 0 a 6,6 0 0 1 5.98,-6 z"
     id="path5760"
     inkscape:connector-curvature="0"
     style="opacity:0.1" />
  <polygon
     points="386.25,604.73 377.69,604.73 377.94,602.36 386.52,602.14 "
     id="polygon5762"
     style="opacity:0.1"
     transform="translate(-109.23001,-87.010002)" />
  <rect
     x="302.66998"
     y="515.23999"
     width="15.91"
     height="2.48"
     id="rect5764"
     style="opacity:0.1" />
  <polygon
     points="452.86,602.14 461.43,602.36 461.68,604.73 453.12,604.73 "
     id="polygon5766"
     style="opacity:0.1"
     transform="translate(-109.23001,-87.010002)" />
  <path
     d="m 255.39999,510.39 h 111.58 a 6,6 0 0 1 6,6 v 0 h -123.56 v 0 a 6,6 0 0 1 6,-6 z"
     id="path5768"
     inkscape:connector-curvature="0"
     style="fill:#504f60" />
  <path
     d="m 408.58999,333.31 a 1.49,1.49 0 0 1 1.71,1.64 c -1.45,14 -0.52,28.34 1.05,42.31 0.73,6.39 1.72,13.15 4.55,17.89 a 1.51,1.51 0 0 1 -0.2,1.86 4,4 0 0 1 -2.78,0.83 l -44.63,0.25 a 1.49,1.49 0 0 1 -1.46,-1.84 c 3.59,-15.3 2.82,-32 1.38,-47.87 -0.71,-7.81 -1.12,-12 4.71,-12.55 6,-0.54 12,-0.79 18,-1.29 1.44,-0.12 12.98,-0.46 17.67,-1.23 z"
     stroke-miterlimit="10"
     id="path5770"
     inkscape:connector-curvature="0"
     style="fill:#ffffff;stroke:#33313f;stroke-width:3;stroke-miterlimit:10" />
  <path
     d="m 374.43999,425 a 1.49,1.49 0 0 0 -1.71,1.64 c 1.45,14 0.52,28.34 -1.06,42.31 -0.72,6.39 -1.71,13.15 -4.54,17.9 a 1.49,1.49 0 0 0 0.2,1.85 4,4 0 0 0 2.78,0.83 l 44.63,0.26 a 1.51,1.51 0 0 0 1.46,-1.85 c -3.59,-15.3 -2.82,-32 -1.38,-47.87 0.71,-7.81 1.12,-12 -4.71,-12.55 -5.83,-0.55 -12,-0.79 -18,-1.29 -1.44,-0.12 -12.98,-0.46 -17.67,-1.23 z"
     stroke-miterlimit="10"
     id="path5772"
     inkscape:connector-curvature="0"
     style="fill:#ffffff;stroke:#33313f;stroke-width:3;stroke-miterlimit:10" />
  <path
     d="m 387.54999,450.76 a 132.37,132.37 0 0 1 15.56,0.19 1.47,1.47 0 0 1 1.32,1.3 l 0.49,4.09 a 0.58,0.58 0 0 1 -0.12,0.53 0.55,0.55 0 0 1 -0.38,0.1 c -2.18,0.06 -4.36,-0.19 -6.53,0 -1.35,0.11 -2.69,0.37 -4,0.52 a 47.75,47.75 0 0 1 -6.66,0.12 33.56,33.56 0 0 1 -9.27,-1.14 c 0,0 0.18,-3.39 0.18,-3.71 0,-1.58 -0.05,-1.72 1.58,-1.76 z"
     stroke-miterlimit="10"
     id="path5774"
     inkscape:connector-curvature="0"
     style="fill:none;stroke:#33313f;stroke-width:2;stroke-linecap:round;stroke-miterlimit:10" />
  <path
     d="m 387.54999,469.2 a 130.24,130.24 0 0 0 15.56,-0.2 1.47,1.47 0 0 0 1.32,-1.3 l 0.49,-4.08 a 0.6,0.6 0 0 0 -0.12,-0.54 0.55,0.55 0 0 0 -0.38,-0.1 c -2.18,-0.06 -4.36,0.2 -6.53,0 -1.35,-0.1 -2.69,-0.36 -4,-0.51 a 46.26,46.26 0 0 0 -6.66,-0.12 33.56,33.56 0 0 0 -9.27,1.14 c 0,0 0.18,3.38 0.18,3.71 0,1.58 -0.05,1.71 1.58,1.76 z"
     stroke-miterlimit="10"
     id="path5776"
     inkscape:connector-curvature="0"
     style="fill:none;stroke:#33313f;stroke-width:2;stroke-linecap:round;stroke-miterlimit:10" />
  <path
     d="m 387.54999,476.42 a 130.24,130.24 0 0 1 15.56,0.2 1.47,1.47 0 0 1 1.32,1.3 l 0.49,4.08 a 0.6,0.6 0 0 1 -0.12,0.54 0.55,0.55 0 0 1 -0.38,0.1 c -2.18,0.06 -4.36,-0.2 -6.53,0 -1.35,0.1 -2.69,0.37 -4,0.52 a 47.75,47.75 0 0 1 -6.66,0.11 33.55,33.55 0 0 1 -9.27,-1.13 c 0,0 0.18,-3.39 0.18,-3.72 0,-1.58 -0.05,-1.71 1.58,-1.75 z"
     stroke-miterlimit="10"
     id="path5778"
     inkscape:connector-curvature="0"
     style="fill:none;stroke:#33313f;stroke-width:2;stroke-linecap:round;stroke-miterlimit:10" />
  <path
     d="m 394.11999,390.83 a 6.61,6.61 0 0 1 0.44,3.48 0.52,0.52 0 0 1 -0.07,0.27 0.54,0.54 0 0 1 -0.42,0.15 l -9.5,0.37 c 0,0 0.53,-2.8 0.6,-3 0.33,-1.14 1.16,-0.84 2.23,-0.9 z"
     stroke-miterlimit="10"
     id="path5780"
     inkscape:connector-curvature="0"
     style="fill:#ffffff;stroke:#33313f;stroke-width:2;stroke-linecap:round;stroke-miterlimit:10" />
  <path
     d="m 408.46999,390.83 a 6.61,6.61 0 0 1 0.43,3.48 0.51,0.51 0 0 1 -0.06,0.27 0.56,0.56 0 0 1 -0.42,0.15 l -9.51,0.37 c 0,0 0.54,-2.8 0.61,-3 0.32,-1.14 1.15,-0.84 2.23,-0.9 z"
     stroke-miterlimit="10"
     id="path5782"
     inkscape:connector-curvature="0"
     style="fill:#ffffff;stroke:#33313f;stroke-width:2;stroke-linecap:round;stroke-miterlimit:10" />
  <path
     d="m 402.73999,343.09 1.28,11 a 3,3 0 0 1 -2.73,3.31 142.81,142.81 0 0 1 -24.38,-0.16 3,3 0 0 1 -2.71,-2.86 42.69,42.69 0 0 0 -0.86,-5.83 c -0.33,-2 -0.69,-3.93 1.67,-4.52 2.36,-0.59 5.59,-0.17 8.17,-0.22 q 4.64,-0.09 9.25,-0.26 c 0.86,0 10.31,-0.51 10.31,-0.46 z"
     stroke-miterlimit="10"
     id="path5784"
     inkscape:connector-curvature="0"
     style="fill:none;stroke:#33313f;stroke-width:3;stroke-miterlimit:10" />
  <path
     d="m 402.73999,382.83 1.26,-11 a 3,3 0 0 0 -2.73,-3.31 143.84,143.84 0 0 0 -24.38,0.15 3,3 0 0 0 -2.71,2.87 42.69,42.69 0 0 1 -0.86,5.83 c -0.33,2 -0.69,3.93 1.67,4.52 2.36,0.59 5.59,0.17 8.17,0.22 3.09,0.06 6.17,0.14 9.25,0.26 0.88,0.03 10.33,0.54 10.33,0.46 z"
     stroke-miterlimit="10"
     id="path5786"
     inkscape:connector-curvature="0"
     style="fill:none;stroke:#33313f;stroke-width:3;stroke-miterlimit:10" />
  <path
     d="m 389.88999,432.4 q -0.5,5.49 -0.63,11 a 52.07,52.07 0 0 1 -10.91,-1.25 1.93,1.93 0 0 1 -1.79,-2.36 c -0.07,-2.28 -1.27,-7.37 1.94,-7.69 0.96,-0.1 11.38,0.48 11.39,0.3 z"
     stroke-miterlimit="10"
     id="path5788"
     inkscape:connector-curvature="0"
     style="fill:none;stroke:#33313f;stroke-width:2;stroke-linecap:round;stroke-miterlimit:10" />
  <path
     d="m 213.31999,382.44 a 3.19,3.19 0 0 1 3.52,3.47 c -1.15,13.31 -0.24,26.94 1.26,40.21 0.67,5.9 1.56,12.11 3.92,16.76 a 2.62,2.62 0 0 1 -2.32,3.82 v 0 l -44.28,0.26 a 1.76,1.76 0 0 1 -1.73,-2.14 c 3.51,-15.22 2.74,-31.84 1.31,-47.58 -0.72,-7.81 -1.12,-12 4.7,-12.55 6,-0.53 12,-0.78 17.95,-1.29 1.27,-0.1 10.35,-0.38 15.67,-0.96 z"
     stroke-miterlimit="10"
     id="path5790"
     inkscape:connector-curvature="0"
     style="fill:#ffffff;stroke:#33313f;stroke-width:3;stroke-linecap:round;stroke-miterlimit:10" />
  <path
     d="m 274.91999,382.19 a 1.59,1.59 0 0 0 -1.82,1.76 c 1.43,13.93 0.5,28.25 -1.07,42.17 -0.72,6.39 -1.71,13.12 -4.53,17.87 a 1.58,1.58 0 0 0 0.42,2.07 4.19,4.19 0 0 0 2.54,0.64 l 44.51,0.26 a 1.6,1.6 0 0 0 1.55,-2 c -3.55,-15.27 -2.79,-31.95 -1.35,-47.75 0.71,-7.81 1.12,-12 -4.7,-12.55 -6,-0.53 -12,-0.78 -18,-1.29 -1.47,-0.09 -12.77,-0.42 -17.55,-1.18 z"
     stroke-miterlimit="10"
     id="path5792"
     inkscape:connector-curvature="0"
     style="fill:#ffffff;stroke:#33313f;stroke-width:3;stroke-miterlimit:10" />
  <line
     x1="186.81"
     y1="391.28"
     x2="209.44998"
     y2="421.47998"
     stroke-miterlimit="10"
     id="line5794"
     style="fill:#ffffff;stroke:#33313f;stroke-width:2;stroke-linecap:round;stroke-miterlimit:10" />
  <line
     x1="209.44998"
     y1="389.01999"
     x2="187.56"
     y2="422.98999"
     stroke-miterlimit="10"
     id="line5796"
     style="fill:#ffffff;stroke:#33313f;stroke-width:2;stroke-linecap:round;stroke-miterlimit:10" />
  <line
     x1="287.84"
     y1="392.69998"
     x2="300.16998"
     y2="409.14999"
     stroke-miterlimit="10"
     id="line5798"
     style="fill:#ffffff;stroke:#33313f;stroke-width:2;stroke-linecap:round;stroke-miterlimit:10" />
  <line
     x1="300.16998"
     y1="391.45999"
     x2="288.25"
     y2="409.97"
     stroke-miterlimit="10"
     id="line5800"
     style="fill:#ffffff;stroke:#33313f;stroke-width:2;stroke-linecap:round;stroke-miterlimit:10" />
  <path
     d="m 194.28999,431.13 a 132.56,132.56 0 0 1 15.57,0.19 1.49,1.49 0 0 1 1.32,1.3 l 0.48,4.09 a 0.63,0.63 0 0 1 -0.11,0.54 0.7,0.7 0 0 1 -0.38,0.1 c -2.18,0.06 -4.37,-0.2 -6.54,0 -1.35,0.1 -2.68,0.36 -4,0.51 a 47.72,47.72 0 0 1 -6.66,0.12 33.44,33.44 0 0 1 -9.26,-1.14 c -0.06,0 0.18,-3.38 0.18,-3.71 0,-1.58 -0.06,-1.71 1.57,-1.76 z"
     stroke-miterlimit="10"
     id="path5802"
     inkscape:connector-curvature="0"
     style="fill:none;stroke:#33313f;stroke-width:2;stroke-linecap:round;stroke-miterlimit:10" />
  <path
     d="m 289.40999,416.03 a 130.43,130.43 0 0 1 15.57,0.2 1.47,1.47 0 0 1 1.32,1.3 l 0.48,4.08 a 0.63,0.63 0 0 1 -0.11,0.54 0.56,0.56 0 0 1 -0.38,0.1 c -2.18,0.06 -4.37,-0.2 -6.54,0 -1.35,0.1 -2.68,0.37 -4,0.51 a 46.26,46.26 0 0 1 -6.66,0.12 33.56,33.56 0 0 1 -9.27,-1.14 c -0.05,0 0.18,-3.38 0.18,-3.71 0,-1.58 -0.05,-1.71 1.58,-1.76 z"
     stroke-miterlimit="10"
     id="path5804"
     inkscape:connector-curvature="0"
     style="fill:none;stroke:#33313f;stroke-width:2;stroke-linecap:round;stroke-miterlimit:10" />
  <path
     d="m 297.33999,427.36 a 132.39,132.39 0 0 0 -15.56,0.19 1.47,1.47 0 0 0 -1.32,1.3 l -0.46,4.08 a 0.57,0.57 0 0 0 0.11,0.54 0.55,0.55 0 0 0 0.38,0.1 c 2.18,0.06 4.36,-0.19 6.54,0 1.35,0.1 2.68,0.37 4,0.52 a 49.33,49.33 0 0 0 6.66,0.12 33.47,33.47 0 0 0 9.27,-1.14 c 0.05,0 -0.18,-3.39 -0.18,-3.71 0,-1.59 0.06,-1.72 -1.57,-1.76 z"
     stroke-miterlimit="10"
     id="path5806"
     inkscape:connector-curvature="0"
     style="fill:none;stroke:#33313f;stroke-width:2;stroke-linecap:round;stroke-miterlimit:10" />
  <path
     d="m 232.62999,419.96 c 0,0 14.71,-0.75 17.35,0"
     stroke-miterlimit="10"
     id="path5808"
     inkscape:connector-curvature="0"
     style="fill:none;stroke:#33313f;stroke-width:3;stroke-miterlimit:10" />
  <path
     d="m 249.99999,412.04 c 0,0 6.41,6.41 6.41,7.92 0,1.51 -8.3,6.79 -8.3,6.79"
     stroke-miterlimit="10"
     id="path5810"
     inkscape:connector-curvature="0"
     style="fill:none;stroke:#33313f;stroke-width:3;stroke-miterlimit:10" />
  <path
     d="m 328.83999,406.28 c 0,0 13.33,-6.24 16.06,-6.54"
     stroke-miterlimit="10"
     id="path5812"
     inkscape:connector-curvature="0"
     style="fill:none;stroke:#33313f;stroke-width:3;stroke-miterlimit:10" />
  <path
     d="m 341.91999,392.41 c 0,0 8.35,3.52 8.92,4.91 0.57,1.39 -5.12,9.42 -5.12,9.42"
     stroke-miterlimit="10"
     id="path5814"
     inkscape:connector-curvature="0"
     style="fill:none;stroke:#33313f;stroke-width:3;stroke-miterlimit:10" />
  <path
     d="m 328.69999,422.26 c 0,0 13.55,5.75 15.6,7.59"
     stroke-miterlimit="10"
     id="path5816"
     inkscape:connector-curvature="0"
     style="fill:none;stroke:#33313f;stroke-width:3;stroke-miterlimit:10" />
  <path
     d="m 347.75999,422.72 c 0,0 3,8.57 2.3,9.93 -0.7,1.36 -10.43,2.48 -10.43,2.48"
     stroke-miterlimit="10"
     id="path5818"
     inkscape:connector-curvature="0"
     style="fill:none;stroke:#33313f;stroke-width:3;stroke-miterlimit:10" />
  <path
     d="m 381.28999,390.83 a 6.61,6.61 0 0 1 0.43,3.48 0.51,0.51 0 0 1 -0.06,0.27 0.56,0.56 0 0 1 -0.42,0.15 l -9.51,0.37 c 0,0 0.54,-2.8 0.61,-3 0.32,-1.14 1.16,-0.84 2.23,-0.9 z"
     stroke-miterlimit="10"
     id="path5820"
     inkscape:connector-curvature="0"
     style="fill:#ffffff;stroke:#33313f;stroke-width:2;stroke-linecap:round;stroke-miterlimit:10" />
  <polygon
     points="311.23,560.77 309.66,563.18 310.87,564.02 314.23,560.89 "
     id="polygon5822"
     style="fill:#33313f"
     transform="translate(-109.23001,-87.010002)" />
  <polygon
     points="291.05,580.55 301.95,569.13 305.66,565.25 307.4,565.04 309.9,562.56 311.37,563.85 308.94,566.69 308.98,568.18 305.19,572.29 294.49,583.91 293.8,584.65 289.5,588.63 286.7,585.94 290.26,581.37 "
     id="polygon5824"
     style="fill:#65617d"
     transform="translate(-109.23001,-87.010002)" />
  <polygon
     points="305.19,572.29 294.49,583.91 291.05,580.55 301.95,569.13 "
     id="polygon5826"
     style="fill:#33313f"
     transform="translate(-109.23001,-87.010002)" />
  <path
     d="m 198.26999,497.94 a 48,48 0 0 1 -8.19,-10 c -4.8,-7.48 -12.82,-11.52 -18.32,-13.53 v -2.43 l 0.34,-0.07 -0.15,-2.26 h 0.15 l -0.39,-6 v -0.05 0 l -1.98,-29.77 c 0,0 -7.05,-19.85 5.48,-38.16 12.53,-18.31 0.78,-35.87 -11,-42.74 0,0 -5.48,-29 -0.78,-35.87 a 203.68,203.68 0 0 0 -19.68,-9.95 c -0.11,-0.36 -0.2,-0.72 -0.29,-1.1 -0.13,-2.7 -0.3,-5.4 -0.45,-8.1 a 29.47,29.47 0 0 1 0.77,-4.16 c 0.15,-0.57 0.32,-1.14 0.5,-1.73 a 29.78,29.78 0 0 0 19.15,-27.61 29,29 0 0 0 -1.86,-10.24 12.87,12.87 0 0 0 1.43,-3.34 c 0.75,-3.09 -0.1,-6.39 -1.86,-9.52 -3.14,-6.78 -10.97,-13.13 -16.65,-15.48 -8.14,-3.3 -20.39,-2.52 -28.87,-1.5 -4.76,0.57 -10.19,2.16 -11.91,6.52 -0.63,1.6 -0.64,3.37 -1.08,5 -1.78,6.66 -9.470001,9.76 -14.220001,14.86 -4.2,4.5 -6,10.59 -7.4,16.52 a 151.21,151.21 0 0 0 -2.75,51.85 c 0.48,4 1.12,7.95 1.8,11.91 -2.86,4 -5.44,11.07 -4.26,23.35 l -9.4,44.26 -3.91,25.95 c 0,0 -2.35,10.68 7,19.84 6,5.84 13.25,15.71 17.72,22.1 a 52.45,52.45 0 0 0 -2.85,17.59 c 0.1,2.72 0.25,5.35 0.44,7.85 a 69.33,69.33 0 0 0 3,15.64 c 1.1,10.66 3.27,24.29 7.52,33 l 1.56,46.55 c 0,0 -2.35,42.74 -7,51.13 -4.65,8.39 10.170001,79.37 10.170001,79.37 v 9.92 l -2.500001,7.34 -0.63,-0.47 c -11.74,14.5 0,19.84 0,19.84 0,0 3.200001,0.15 8.310001,0.35 a 9.36,9.36 0 0 0 5,10.34 c 0,0 66.53,3.05 78.28,0 11.75,-3.05 8.61,-13.74 2.34,-13 -2.39,0.3 -5.92,-0.33 -9.37,-1.22 3.65,-4.25 0.73,-10 -3.93,-9.46 -6.26,0.76 -20.35,-4.78 -20.35,-4.78 l -0.07,0.09 a 10.5,10.5 0 0 0 -1.38,-0.42 156.67,156.67 0 0 1 -15.49,-4.33 c -3,-6.43 -10,-23.71 -5,-37.11 2.26,-6.06 3,-14.12 3,-21.94 a 249,249 0 0 1 10.31,-69.66 l 9.39,-32 c 0,0 13.31,-38.93 14.09,-49.61 l -0.05,-15.54 c 11,7 19.75,4.9 25.33,1.63 a 6,6 0 0 0 0.94,-9.65 z m -104.470001,-81 c 0.27,-1.12 0.49,-2.34 0.68,-3.63 1.84,0 3.69,0 5.530001,-0.06 a 28.17,28.17 0 0 1 2.78,15 c -4.240001,-1.31 -10.580001,-4.52 -8.990001,-11.26 z"
     id="path5828"
     inkscape:connector-curvature="0"
     style="fill:url(#ed123d47-1cc8-43ee-8efc-264e01b6d696)" />
  <path
     d="m 101.23999,723.83 -3.000001,9 9.790001,9.79 32.39,7.53 23.35,-2.26 -1.51,-8.29 v 0 a 10,10 0 0 0 -7.42,-7.29 c -9.6,-2.26 -27.9,-7.4 -31.75,-14.55 z"
     id="path5830"
     inkscape:connector-curvature="0"
     style="fill:#db8b8b" />
  <path
     d="m 101.23999,723.83 -3.000001,9 9.790001,9.79 32.39,7.53 23.35,-2.26 -1.51,-8.29 v 0 a 10,10 0 0 0 -7.42,-7.29 c -9.6,-2.26 -27.9,-7.4 -31.75,-14.55 z"
     id="path5832"
     inkscape:connector-curvature="0"
     style="opacity:0.1" />
  <path
     d="m 156.22999,745.63 -4.52,-6 4.52,-7 c 0,0 13.55,5.47 19.58,4.72 6.03,-0.75 9,9.79 -2.26,12.8 -11.26,3.01 -75.320001,0 -75.320001,0 0,0 -11.3,-5.27 0,-19.58 l 9.790001,7.53 c 0,0 16.57,9 24.86,7.53 z"
     id="path5834"
     inkscape:connector-curvature="0"
     style="fill:#2e3037" />
  <path
     d="m 176.55999,758.44 -23.35,2.26 -32.39,-7.54 -9.82,-9.79 0.8,-2.39 1.12,-3.36 1.1,-3.29 21.84,-6 a 13.5,13.5 0 0 0 4.43,4.43 c 7.09,4.85 19.84,8.36 27.32,10.11 0.31,0.08 0.63,0.17 0.93,0.28 a 9.92,9.92 0 0 1 6.49,7 z"
     id="path5836"
     inkscape:connector-curvature="0"
     style="fill:#db8b8b" />
  <path
     d="m 176.55999,758.44 -23.35,2.26 -32.39,-7.54 -9.82,-9.79 0.8,-2.39 9,6.91 c 0,0 16.58,9 24.86,7.53 h 23.34 l -4.52,-6 4.06,-6.27 a 9.92,9.92 0 0 1 6.49,7 z"
     id="path5838"
     inkscape:connector-curvature="0"
     style="opacity:0.1" />
  <path
     d="m 168.99999,756.18 -4.52,-6 4.52,-7 c 0,0 13.56,5.47 19.58,4.72 6.02,-0.75 9,9.79 -2.25,12.81 -11.25,3.02 -75.33,0 -75.33,0 0,0 -11.300001,-5.28 0,-19.59 l 9.79,7.53 c 0,0 16.58,9 24.86,7.54 z"
     id="path5840"
     inkscape:connector-curvature="0"
     style="fill:#2e3037" />
  <path
     d="m 150.19999,319.31 c 0,0 -36.15,3.76 -30.88,-11.3 a 27,27 0 0 0 1.11,-13.3 36.91,36.91 0 0 0 -6.38,-15.32 l 33.89,5.27 a 42.32,42.32 0 0 0 -4.59,10.88 c -4.04,15.99 6.85,23.77 6.85,23.77 z"
     id="path5842"
     inkscape:connector-curvature="0"
     style="fill:#db8b8b" />
  <path
     d="m 88.439989,491.04 c 0,0 0.75,32.39 8.28,48.21 l 1.51,45.94 c 0,0 -2.26,42.19 -6.78,50.47 -4.52,8.28 9.790001,78.34 9.790001,78.34 v 12.05 c 0,0 24.1,9 30.88,-1.51 l -6.78,-89.63 3,-124.28 z"
     id="path5844"
     inkscape:connector-curvature="0"
     style="fill:#35323e" />
  <path
     d="m 88.429989,491.04 c 0,0 0.75,32.39 8.28,48.21 l 1.51,45.94 c 0,0 -2.26,42.19 -6.78,50.47 -4.52,8.28 9.790001,78.34 9.790001,78.34 v 12.05 c 0,0 24.1,9 30.88,-1.51 l -6.78,-89.63 3,-124.28 z"
     id="path5846"
     inkscape:connector-curvature="0"
     style="opacity:0.1" />
  <path
     d="m 73.369989,387.1 -4.52,12.05 -3.76,25.61 a 22.65,22.65 0 0 0 6.78,19.58 c 9,9 21.09,27.87 21.09,27.87 l 14.310001,-42.93 c 0,0 -14.310001,-2.26 -12.000001,-12.05 2.31,-9.79 1.5,-27.87 1.5,-27.87 z"
     id="path5848"
     inkscape:connector-curvature="0"
     style="fill:#6c63ff" />
  <path
     d="m 140.31999,732.74 c -9.67,15.21 -24.7,6.59 -27.37,4.88 l 1.1,-3.29 21.84,-6 a 13.5,13.5 0 0 0 4.43,4.41 z"
     id="path5850"
     inkscape:connector-curvature="0"
     style="opacity:0.1" />
  <path
     d="m 170.53999,520.42 c -0.76,10.54 -13.56,49 -13.56,49 l -9,31.61 a 251.29,251.29 0 0 0 -9.98,68.72 c 0,7.71 -0.71,15.67 -2.88,21.65 -6,16.57 6,39.17 6,39.17 -10.54,18.83 -28.62,6 -28.62,6 v -12 c 0,0 -14.270001,-65.56 -10.5,-78.36 3.77,-12.8 5.28,-47.46 5.28,-47.46 v -62.51 a 70.9,70.9 0 0 1 -20.670001,-45 c -0.18,-2.47 -0.33,-5.06 -0.42,-7.75 -0.61,-17 11,-36.92 15.540001,-44 1.1,-1.72 1.78,-2.68 1.78,-2.68 l 66.49,26.38 0.15,0.06 v 2.57 5.7 z"
     id="path5852"
     inkscape:connector-curvature="0"
     style="fill:#35323e" />
  <path
     d="m 147.93999,284.66 a 42.32,42.32 0 0 0 -4.59,10.88 29.42,29.42 0 0 1 -22.92,-0.83 36.91,36.91 0 0 0 -6.38,-15.32 z"
     id="path5854"
     inkscape:connector-curvature="0"
     style="opacity:0.1" />
  <circle
     cx="132.87999"
     cy="266.57999"
     r="29.379999"
     id="circle5856"
     style="fill:#db8b8b" />
  <path
     d="m 170.53999,471.46 -0.33,0.06 c -31.58,6.49 -71.210001,-26.42 -71.210001,-26.42 a 38,38 0 0 0 2.740001,-5.61 c 1.1,-1.72 1.78,-2.68 1.78,-2.68 l 66.48,26.38 0.17,2.63 z"
     id="path5858"
     inkscape:connector-curvature="0"
     style="opacity:0.1" />
  <path
     d="m 162.24999,318.56 c 0,0 -42.18,-25.61 -55.74,-15.07 l -18.830001,24.1 c 0,0 -12.05,3.77 -9.79,27.87 l -9,43.69 27.11,6.78 c 0,0 15.820001,15.06 3,36.91 0,0 39.920001,33.14 71.560001,26.36 l -2.28,-35.37 c 0,0 -6.78,-19.59 5.27,-37.66 12.05,-18.07 0.75,-35.4 -10.54,-42.18 -0.01,-0.03 -5.28,-28.66 -0.76,-35.43 z"
     id="path5860"
     inkscape:connector-curvature="0"
     style="fill:#6c63ff" />
  <path
     d="m 164.50999,472.21 c 0,0 15.82,3 23.35,15.07 a 46.86,46.86 0 0 0 7.89,9.85 6,6 0 0 1 -0.94,9.52 c -6,3.6 -15.72,5.81 -28,-4.31 -21.13,-17.32 -2.3,-30.13 -2.3,-30.13 z"
     id="path5862"
     inkscape:connector-curvature="0"
     style="fill:#db8b8b" />
  <path
     d="m 141.15999,332.83 c 0,0 -15.06,-1.51 -18.83,37.66 -3.77,39.17 -9.79,48.2 -9.79,48.2 0,0 -3.77,20.34 5.27,32.39 9.04,12.05 26.36,37.75 26.36,37.75 0,0 18.84,5.28 22.6,-13.56 l -23.35,-43.68 c 0,0 -3.76,-15.07 5.27,-25.61 9.03,-10.54 15.82,-80.65 -7.53,-73.15 z"
     id="path5864"
     inkscape:connector-curvature="0"
     style="opacity:0.1" />
  <path
     d="m 142.66999,330.61 c 0,0 -15.07,-1.51 -18.83,37.66 -3.76,39.17 -9.79,48.2 -9.79,48.2 0,0 -3.77,20.36 5.27,32.36 9.04,12 26.36,37.66 26.36,37.66 0,0 18.83,5.28 22.6,-13.55 l -23.35,-43.69 c 0,0 -3.77,-15.07 5.27,-25.61 9.04,-10.54 15.8,-80.57 -7.53,-73.03 z"
     id="path5866"
     inkscape:connector-curvature="0"
     style="fill:#6c63ff" />
  <path
     d="m 155.09999,358.83 c 0,0 1.5,23.35 -5.28,36.16 -6.78,12.81 -6.78,29.37 0,38.41"
     id="path5868"
     inkscape:connector-curvature="0"
     style="opacity:0.1" />
  <path
     d="m 158.85999,330.23 c 0,0 -6,-6 -23.35,-6.78 -17.35,-0.78 -24.85,-6 -24.85,-6"
     id="path5870"
     inkscape:connector-curvature="0"
     style="opacity:0.1" />
  <path
     d="m 116.99999,228.62 c -4.58,0.56 -9.81,2.13 -11.46,6.44 -0.61,1.58 -0.62,3.32 -1.05,5 -1.71,6.58 -9.110001,9.64 -13.680001,14.67 -4,4.44 -5.81,10.45 -7.12,16.3 a 153.13,153.13 0 0 0 -2.69,51.14 c 1.47,12.49 4.47,24.78 5.32,37.33 0.85,12.55 -0.7,25.75 -7.56,36.29 -3,4.54 -6.84,8.52 -8.93,13.51 4.32,3.5 10.28,4 15.84,4.19 q 9.72,0.33 19.440001,0 c 3.4,-0.12 6.95,-0.34 9.88,-2.06 a 15.31,15.31 0 0 0 5.19,-5.56 c 3.7,-6.29 4.64,-13.85 4.48,-21.15 -0.16,-7.3 -1.31,-14.55 -1.45,-21.85 -0.07,-4 0.24,-8.2 2.53,-11.46 1.65,-2.35 4.16,-3.93 6.31,-5.84 8.07,-7.14 10.83,-18.6 11.1,-29.37 0.27,-10.77 -1.5,-21.56 -0.59,-32.29 0.35,-4.21 1.92,-9.25 6.06,-10.07 1.3,-0.26 2.69,0 3.93,-0.5 3.32,-1.27 3,-5.95 3.94,-9.37 1.07,-3.85 4.35,-6.82 5.27,-10.7 2.17,-9.11 -9.43,-20 -17,-23.16 -7.85,-3.28 -19.64,-2.49 -27.76,-1.49 z"
     id="path5872"
     inkscape:connector-curvature="0"
     style="opacity:0.1" />
  <path
     d="m 116.20999,227.12 c -4.58,0.56 -9.81,2.13 -11.46,6.43 a 46,46 0 0 0 -1,5 c -1.71,6.58 -9.120001,9.64 -13.690001,14.68 -4,4.43 -5.81,10.44 -7.12,16.3 a 153.33,153.33 0 0 0 -2.64,51.17 c 1.47,12.49 4.47,24.79 5.31,37.33 0.84,12.54 -0.69,25.75 -7.55,36.29 -3,4.54 -6.84,8.52 -8.93,13.51 4.32,3.51 10.28,4 15.84,4.19 q 9.72,0.33 19.440001,0 c 3.4,-0.12 6.95,-0.33 9.88,-2.06 a 15.13,15.13 0 0 0 5.18,-5.56 c 3.71,-6.29 4.64,-13.85 4.49,-21.15 -0.15,-7.3 -1.32,-14.55 -1.45,-21.85 -0.07,-4 0.24,-8.2 2.52,-11.45 1.66,-2.36 4.17,-3.94 6.32,-5.84 8.06,-7.15 10.83,-18.61 11.1,-29.38 0.27,-10.77 -1.51,-21.56 -0.6,-32.29 0.36,-4.2 1.93,-9.25 6.06,-10.06 1.31,-0.26 2.7,0 3.94,-0.51 3.32,-1.27 3,-5.94 3.94,-9.37 1.06,-3.85 4.34,-6.81 5.27,-10.69 2.17,-9.12 -9.43,-20 -17,-23.17 -7.91,-3.3 -19.69,-2.53 -27.85,-1.52 z"
     id="path5874"
     inkscape:connector-curvature="0"
     style="fill:#35323e" />
</svg>
