<?xml version="1.0" encoding="utf-8"?>
<!-- Generator: Adobe Illustrator 23.0.1, SVG Export Plug-In . SVG Version: 6.00 Build 0)  -->
<svg version="1.1" id="Layer_1" xmlns="http://www.w3.org/2000/svg" xmlns:xlink="http://www.w3.org/1999/xlink" x="0px" y="0px"
	 viewBox="0 0 160 30" style="enable-background:new 0 0 160 30;" xml:space="preserve">
<style type="text/css">
	.st0{fill:#00558C;}
</style>
<g>
	<path class="st0" d="M0,0.9h9.07v11.06L20.43,0.9h12.06L20.13,11.96L33.39,29.1H21.33l-8.37-11.26l-3.89,3.29v7.97H0V0.9z"/>
	<path class="st0" d="M48.44,0c9.57,0,17.74,3.29,17.74,15.05S58.11,30,48.44,30c-9.57,0-17.74-3.29-17.74-14.95
		C30.8,3.29,38.87,0,48.44,0z M48.44,23.72c4.88,0,8.07-2.69,8.07-8.67c0-5.88-3.19-8.67-8.07-8.67c-4.78,0-8.07,2.79-8.07,8.67
		S43.65,23.72,48.44,23.72z"/>
	<path class="st0" d="M68.67,0.9h25.91v6.38H77.74v4.88h15.65v6.08H77.74V29.2h-9.07V0.9z"/>
	<path class="st0" d="M103.46,0.9h11.06l11.66,28.31h-9.67l-1.59-4.58h-11.86l-1.59,4.58H91.7L103.46,0.9z M108.94,7.97L108.94,7.97
		l-3.89,10.66h7.57L108.94,7.97z"/>
	<path class="st0" d="M136.15,14.45L125.58,0.9h10.76l4.98,7.57l4.98-7.57h10.76l-10.47,13.55l11.76,14.65h-11.26l-5.78-8.57
		l-5.78,8.57h-11.26L136.15,14.45z"/>
</g>
</svg>
