<?xml version="1.0" encoding="UTF-8" standalone="no"?>
<svg
   xmlns:dc="http://purl.org/dc/elements/1.1/"
   xmlns:cc="http://creativecommons.org/ns#"
   xmlns:rdf="http://www.w3.org/1999/02/22-rdf-syntax-ns#"
   xmlns:svg="http://www.w3.org/2000/svg"
   xmlns="http://www.w3.org/2000/svg"
   xmlns:sodipodi="http://sodipodi.sourceforge.net/DTD/sodipodi-0.dtd"
   xmlns:inkscape="http://www.inkscape.org/namespaces/inkscape"
   inkscape:version="1.0 (4035a4fb49, 2020-05-01)"
   sodipodi:docname="memory_storage_reh0.svg"
   version="1.1"
   viewBox="0 0 793.57972 828"
   height="828"
   width="793.57972"
   data-name="Layer 1"
   id="fbcb77b8-9057-4a89-9c31-e27c7eb0ed40">
  <metadata
     id="metadata202">
    <rdf:RDF>
      <cc:Work
         rdf:about="">
        <dc:format>image/svg+xml</dc:format>
        <dc:type
           rdf:resource="http://purl.org/dc/dcmitype/StillImage" />
      </cc:Work>
    </rdf:RDF>
  </metadata>
  <defs
     id="defs200" />
  <sodipodi:namedview
     inkscape:current-layer="fbcb77b8-9057-4a89-9c31-e27c7eb0ed40"
     inkscape:window-maximized="1"
     inkscape:window-y="-8"
     inkscape:window-x="1912"
     inkscape:cy="414"
     inkscape:cx="396.78986"
     inkscape:zoom="1.0386473"
     showgrid="false"
     id="namedview198"
     inkscape:window-height="1027"
     inkscape:window-width="1920"
     inkscape:pageshadow="2"
     inkscape:pageopacity="0"
     guidetolerance="10"
     gridtolerance="10"
     objecttolerance="10"
     borderopacity="1"
     bordercolor="#666666"
     pagecolor="#ffffff" />
  <title
     id="title105">Memory storage</title>
  <ellipse
     style="fill:#e0e0e0;fill-opacity:1"
     id="ellipse107"
     fill="#3f3d56"
     ry="52"
     rx="294"
     cy="776"
     cx="400.98059" />
  <path
     id="path109"
     stroke-width="2"
     stroke-miterlimit="10"
     stroke="#3f3d56"
     fill="none"
     transform="translate(-203.21014 -36)"
     d="M359.17389,322.2052c0-75.75611,111.08263-137.16857,248.11-137.16857s248.11,61.41246,248.11,137.16857" />
  <path
     id="path111"
     fill="#e6e6e6"
     transform="translate(-203.21014 -36)"
     d="M685.2975,237.85074H483.44675Q423.562,136.92537,483.44675,36H685.2975Q601.56463,136.92537,685.2975,237.85074Z" />
  <rect
     id="rect113"
     fill="#6c63ff"
     height="14.41791"
     width="113.74129"
     y="24.02985"
     x="309.07244" />
  <rect
     id="rect115"
     fill="#fff"
     height="4.80597"
     width="150.58706"
     y="71.28856"
     x="272.22667" />
  <rect
     id="rect117"
     fill="#fff"
     height="4.80597"
     width="150.58706"
     y="96.1194"
     x="272.22667" />
  <rect
     id="rect119"
     fill="#fff"
     height="4.80597"
     width="150.58706"
     y="120.95025"
     x="272.22667" />
  <path
     id="path133"
     fill="#2f2e41"
     transform="translate(-203.21014 -36)"
     d="M561.03984,193.68167c1.169.536,2.57518-.263,3.26431-1.34876,2.62406-4.13443-2.20717-9.46554-1.16106-14.24935.8381-3.83254,5.19311-6.10727,6.08355-9.928.8652-3.71246-1.8008-7.897.00115-11.25619,1.41173-2.63171,4.93809-3.32425,7.88874-2.86321s5.75131,1.75814,8.73222,1.93988c3.97213.24218,7.75852-1.5064,11.64257-2.37277s8.62166-.52716,10.90658,2.731c2.93387,4.18352-.04223,10.00893.97933,15.01551.81119,3.97556,4.13936,7.26743,4.21087,11.32428.02541,1.44192-3.76518.28033-3.5637,1.70833s-1.59011.17065-.158.001a2.83656,2.83656,0,0,0,2.15525-2.56349c.17028-1.18939,2.40545-1.58586,2.37966-2.78711-.06043-2.81524,5.02939-.91705,5.86761-3.60529a27.26083,27.26083,0,0,0-1.11407-19.01732c-1.1415-2.561-2.69605-4.98476-3.24677-7.73406-.74772-3.73277.42879-7.73995-.80445-11.34159-1.662-4.85372-7.16143-7.328-12.26714-7.83054s-10.29417.397-15.37075-.344c-4.54775-.66384-8.95048-2.63481-13.53754-2.34924-5.50405.34266-10.29366,3.889-14.109,7.87087s-7.05186,8.56161-11.385,11.97279a22.32925,22.32925,0,0,0-3.65052,3.14268c-2.207,2.6895-2.43084,6.52085-1.81689,9.94536s1.94987,6.69111,2.51394,10.12419c.53009,3.2263.36656,6.52246.59488,9.784s.90531,6.622,2.86966,9.23562a8.71633,8.71633,0,0,0,6.78255,3.54347c.91842.02117,1.69412-.80408,2.62108-.58889C559.50761,192.10982,560.01142,193.21015,561.03984,193.68167Z" />
  <polygon
     id="polygon135"
     fill="#a0616a"
     points="318.546 394.707 321.95 415.619 328.759 406.378 324.868 392.275 318.546 394.707" />
  <path
     id="path137"
     fill="#575a89"
     transform="translate(-203.21014 -36)"
     d="M526.13312,272.65061,520.77258,286.777s-5.33864,71.95337-5.33864,77.303,3.89061,73.92158,5.34959,76.83954c0,0,6.32224-9.2402,14.58979-7.78122s4.86326-24.31631,4.86326-24.31631l7.78122-63.70874-1.459-32.09753Z" />
  <path
     id="path139"
     opacity="0.1"
     transform="translate(-203.21014 -36)"
     d="M526.13312,272.65061,520.77258,286.777s-5.33864,71.95337-5.33864,77.303,3.89061,73.92158,5.34959,76.83954c0,0,6.32224-9.2402,14.58979-7.78122s4.86326-24.31631,4.86326-24.31631l7.78122-63.70874-1.459-32.09753Z" />
  <path
     id="path141"
     fill="#a0616a"
     transform="translate(-203.21014 -36)"
     d="M559.2033,194.83842s16.04877,40.8514,6.80857,48.63262,51.55058-13.13081,51.55058-13.13081l-1.459-5.34959s-19.93937-7.78122-10.21285-30.15222S559.2033,194.83842,559.2033,194.83842Z" />
  <path
     id="path143"
     opacity="0.1"
     transform="translate(-203.21014 -36)"
     d="M559.2033,194.83842s16.04877,40.8514,6.80857,48.63262,51.55058-13.13081,51.55058-13.13081l-1.459-5.34959s-19.93937-7.78122-10.21285-30.15222S559.2033,194.83842,559.2033,194.83842Z" />
  <path
     id="path145"
     fill="#575a89"
     transform="translate(-203.21014 -36)"
     d="M533.91434,740.49646s-6.80857-1.94531-10.69918,2.918-18.48039,17.02142-18.48039,17.02142-28.20693-2.918-32.09754,11.1855,44.25569,14.10347,55.92752,10.69918,14.10346,0,14.10346,0,35.98814,2.918,35.98814-2.918-3.40428-25.77529-3.40428-25.77529Z" />
  <path
     id="path147"
     fill="#575a89"
     transform="translate(-203.21014 -36)"
     d="M648.201,773.08031l-6.32225,19.453S622.912,818.795,633.61122,824.14457s48.63262,10.69918,48.63262-3.40429V793.99234s-3.89061-18.96672-7.78122-20.912S648.201,773.08031,648.201,773.08031Z" />
  <path
     id="path149"
     fill="#2f2e41"
     transform="translate(-203.21014 -36)"
     d="M540.80155,423.59059s-20.50434,17.81523-20.018,20.24686S530.99638,602.3798,530.99638,602.3798L536.346,703.53566s-6.80857,23.83-3.40428,29.17958-4.86327,6.80856-4.86327,6.80856,35.01549,31.61121,49.60528,17.99407l13.61714-176.53642L628.748,709.37158s6.32224,68.08567,13.61713,68.08567,36.9608,1.459,36.47447-2.43163,1.459-33.55651-1.94531-51.06426-26.26161-156.11072-26.26161-156.11072-1.96507-118.82188,3.15124-129.92824-2.66492-22.7782-2.66492-22.7782l-34.04283-13.13081-40.85141,4.86327Z" />
  <circle
     id="circle151"
     fill="#a0616a"
     r="34.04284"
     cy="141.33067"
     cx="378.8505" />
  <path
     id="path153"
     fill="#575a89"
     transform="translate(-203.21014 -36)"
     d="M664.7361,250.76593a30.53711,30.53711,0,0,0-21.39836-19.453,188.628,188.628,0,0,1-28.69324-9.72652s-34.52917,16.53509-41.33773,16.53509-6.80857-4.37694-6.80857-4.37694-17.50775,18.4804-26.74795,20.42571-22.85733,24.80263-17.99407,37.44712A70.56789,70.56789,0,0,0,535.85964,313.502s-1.9453,68.08567,4.37694,80.73015c0,0-15.56244,29.6659-.97265,31.61121s70.5173-4.86326,80.24383,1.9453,27.72059-1.459,30.15222,7.78122,7.78122,11.18551,7.78122,11.18551,8.26755-13.13081,3.40429-20.912S664.7361,250.76593,664.7361,250.76593Z" />
  <path
     id="path155"
     fill="#a0616a"
     transform="translate(-203.21014 -36)"
     d="M628.748,433.6246l-7.78122,4.86326s8.26754,28.69325,11.67183,29.6659S644.056,443.61932,644.056,443.61932Z" />
  <path
     id="path157"
     fill="#2f2e41"
     transform="translate(-203.21014 -36)"
     d="M555.20393,190.27739c1.169.536,2.57517-.263,3.2643-1.34877,2.62407-4.13442-2.20717-9.46554-1.161-14.24935.83809-3.83254,5.19311-6.10726,6.08354-9.928.86521-3.71245-1.80079-7.897.00116-11.25618,1.41173-2.63171,4.93809-3.32426,7.88874-2.86322s5.7513,1.75814,8.73222,1.93989c3.97212.24217,7.75851-1.50641,11.64256-2.37277s8.62167-.52717,10.90659,2.731c2.93387,4.18351-.04224,10.00892.97932,15.0155.81119,3.97557,10.0535,6.766,10.89171,4.07773a27.26075,27.26075,0,0,0-1.11407-19.01731c-1.14149-2.561-2.696-4.98476-3.24676-7.73406-.74772-3.73277.42878-7.73995-.80445-11.34159-1.662-4.85372-7.16144-7.328-12.26714-7.83054s-10.29418.397-15.37075-.344c-4.54775-.66385-8.95048-2.63481-13.53755-2.34924-5.50405.34266-10.29365,3.889-14.109,7.87086s-7.05186,8.56162-11.385,11.97279a22.32931,22.32931,0,0,0-3.65052,3.14269c-2.207,2.6895-2.43085,6.52085-1.81689,9.94536s1.94987,6.69111,2.51393,10.12419c.5301,3.22629.36656,6.52245.59488,9.784s.90532,6.622,2.86967,9.23561a8.71634,8.71634,0,0,0,6.78255,3.54348c.91841.02117,1.69411-.80409,2.62107-.58889C553.6717,188.70554,554.17551,189.80587,555.20393,190.27739Z" />
  <path
     id="path159"
     opacity="0.1"
     transform="translate(-203.21014 -36)"
     d="M645.52621,259.27664l15.8056-8.51071s38.41978,91.42934,29.17958,116.7183-44.742,77.32587-44.742,77.32587-28.20692-5.83591-25.289-11.67183,21.88468-43.283,23.34366-48.1463,11.1855-36.47446,6.80857-39.87875S637.745,262.68093,637.745,262.68093Z" />
  <path
     id="path161"
     fill="#575a89"
     transform="translate(-203.21014 -36)"
     d="M645.28305,245.41634l19.453,5.34959s38.41977,91.42934,29.17957,116.7183-44.742,77.32587-44.742,77.32587-28.20692-5.83591-25.289-11.67183,21.88468-43.283,23.34366-48.1463,11.18551-36.47446,6.80857-39.87875-25.289-87.53872-25.289-87.53872Z" />
  <path
     id="path163"
     stroke-width="2"
     stroke-miterlimit="10"
     stroke="#3f3d56"
     fill="none"
     transform="translate(-203.21014 -36)"
     d="M855.39385,322.2052c0,79.425-111.08262,143.81163-248.11,143.81163s-248.11-64.38666-248.11-143.81163" />
  <path
     id="path165"
     stroke-width="2"
     stroke-miterlimit="10"
     stroke="#3f3d56"
     fill="none"
     transform="translate(-203.21014 -36)"
     d="M810.26354,468.05793c-55.45907,29.91083-127.8227,48.011-206.98144,48.011-75.89677,0-145.54691-16.63914-200.04-44.37389" />
  <path
     id="path167"
     stroke-width="2"
     stroke-miterlimit="10"
     stroke="#3f3d56"
     fill="none"
     transform="translate(-203.21014 -36)"
     d="M731.188,147.90572c105.54421,27.741,180.712,88.76157,187.70175,160.63026" />
  <path
     id="path169"
     stroke-width="2"
     stroke-miterlimit="10"
     stroke="#3f3d56"
     fill="none"
     transform="translate(-203.21014 -36)"
     d="M302.37337,261.82294c17.78361-32.68552,50.27112-61.45009,92.83643-83.54855" />
  <path
     id="path171"
     fill="#f2f2f2"
     transform="translate(-203.21014 -36)"
     d="M520.56793,611.70682H722.41867q59.88471-100.92537,0-201.85074H520.56793Q604.3008,510.78145,520.56793,611.70682Z" />
  <rect
     id="rect173"
     fill="#6c63ff"
     height="14.41791"
     width="113.74129"
     y="412.30384"
     x="384.14592" />
  <rect
     style="fill:#e0e0e0;fill-opacity:1"
     id="rect175"
     fill="#fff"
     height="4.80597"
     width="150.58706"
     y="455.55757"
     x="375.33497" />
  <rect
     style="fill:#e0e0e0;fill-opacity:1"
     id="rect177"
     fill="#fff"
     height="4.80597"
     width="150.58706"
     y="480.38841"
     x="375.33497" />
  <path
     id="path179"
     fill="#f2f2f2"
     transform="translate(-203.21014 -36)"
     d="M435.00323,474.6996H233.15249q-59.88471-100.92537,0-201.85074H435.00323Q351.27038,373.77423,435.00323,474.6996Z" />
  <rect
     id="rect181"
     fill="#6c63ff"
     height="14.41791"
     width="113.74129"
     y="260.87871"
     x="52.37022" />
  <rect
     style="fill:#e0e0e0;fill-opacity:1"
     id="rect183"
     fill="#fff"
     height="4.80597"
     width="150.58706"
     y="300.92846"
     x="27.53937" />
  <rect
     style="fill:#e0e0e0;fill-opacity:1"
     id="rect185"
     fill="#fff"
     height="4.80597"
     width="150.58706"
     y="325.75931"
     x="27.53937" />
  <rect
     style="fill:#e0e0e0;fill-opacity:1"
     id="rect187"
     fill="#fff"
     height="4.80597"
     width="150.58706"
     y="350.59015"
     x="27.53937" />
  <rect
     style="fill:#e0e0e0;fill-opacity:1"
     id="rect189"
     fill="#fff"
     height="4.80597"
     width="150.58706"
     y="375.421"
     x="27.53937" />
  <path
     id="path191"
     fill="#f2f2f2"
     transform="translate(-203.21014 -36)"
     d="M764.99677,381.72016H966.84751q59.88471-100.92537,0-201.85074H764.99677Q848.72962,280.79479,764.99677,381.72016Z" />
  <rect
     id="rect193"
     fill="#6c63ff"
     height="14.41791"
     width="113.74129"
     y="163.8943"
     x="626.17177" />
  <rect
     style="fill:#e0e0e0;fill-opacity:1"
     id="rect195"
     fill="#fff"
     height="4.80597"
     width="150.58706"
     y="203.94405"
     x="614.15684" />
</svg>
