<?xml version="1.0" encoding="UTF-8" standalone="no"?>
<svg
   xmlns:dc="http://purl.org/dc/elements/1.1/"
   xmlns:cc="http://creativecommons.org/ns#"
   xmlns:rdf="http://www.w3.org/1999/02/22-rdf-syntax-ns#"
   xmlns:svg="http://www.w3.org/2000/svg"
   xmlns="http://www.w3.org/2000/svg"
   xmlns:sodipodi="http://sodipodi.sourceforge.net/DTD/sodipodi-0.dtd"
   xmlns:inkscape="http://www.inkscape.org/namespaces/inkscape"
   inkscape:version="1.0 (4035a4fb49, 2020-05-01)"
   sodipodi:docname="road_sign_mfpo.svg"
   version="1.1"
   viewBox="0 0 974.96699 773.95792"
   height="773.95792"
   width="974.96699"
   data-name="Layer 1"
   id="ee68b97f-fc10-400d-a2ff-be2b67d80654">
  <metadata
     id="metadata71">
    <rdf:RDF>
      <cc:Work
         rdf:about="">
        <dc:format>image/svg+xml</dc:format>
        <dc:type
           rdf:resource="http://purl.org/dc/dcmitype/StillImage" />
      </cc:Work>
    </rdf:RDF>
  </metadata>
  <defs
     id="defs69" />
  <sodipodi:namedview
     inkscape:current-layer="ee68b97f-fc10-400d-a2ff-be2b67d80654"
     inkscape:window-maximized="1"
     inkscape:window-y="-8"
     inkscape:window-x="1912"
     inkscape:cy="386.97897"
     inkscape:cx="487.48349"
     inkscape:zoom="1.0133677"
     showgrid="false"
     id="namedview67"
     inkscape:window-height="1027"
     inkscape:window-width="1920"
     inkscape:pageshadow="2"
     inkscape:pageopacity="0"
     guidetolerance="10"
     gridtolerance="10"
     objecttolerance="10"
     borderopacity="1"
     bordercolor="#666666"
     pagecolor="#ffffff" />
  <title
     id="title10">road sign</title>
  <circle
     id="circle12"
     fill="#ff6584"
     r="64"
     cy="99.957916"
     cx="66.96698" />
  <ellipse
     id="ellipse22"
     fill="#3f3d56"
     ry="11"
     rx="308"
     cy="684.95792"
     cx="399.96699" />
  <ellipse
     id="ellipse24"
     fill="#3f3d56"
     ry="13.5"
     rx="142"
     cy="760.45792"
     cx="832.96699" />
  <rect
     id="rect26"
     fill="#2f2e41"
     height="338"
     width="36"
     y="346.95792"
     x="381.96699" />
  <polygon
     id="polygon28"
     fill="#3f3d56"
     points="564.967 423.958 343.967 423.958 343.967 361.958 564.967 361.958 628.967 392.958 564.967 423.958" />
  <polygon
     id="polygon30"
     opacity="0.1"
     points="564.967 418.958 343.967 418.958 343.967 423.958 564.967 423.958 628.967 392.958 623.806 390.458 564.967 418.958" />
  <polygon
     id="polygon32"
     fill="#3f3d56"
     points="235.967 505.958 456.967 505.958 456.967 443.958 235.967 443.958 171.967 474.958 235.967 505.958" />
  <polygon
     id="polygon34"
     opacity="0.1"
     points="177.128 472.458 171.967 474.958 235.967 505.958 456.967 505.958 456.967 500.958 235.967 500.958 177.128 472.458" />
  <rect
     id="rect36"
     fill="#6c63ff"
     height="38"
     width="38"
     y="373.95792"
     x="467.96699" />
  <circle
     id="circle38"
     fill="#6c63ff"
     r="19"
     cy="474.95792"
     cx="314.96699" />
  <circle
     id="circle40"
     fill="#2f2e41"
     r="11"
     cy="390.95792"
     cx="399.96699" />
  <circle
     id="circle42"
     fill="#2f2e41"
     r="11"
     cy="472.95792"
     cx="399.96699" />
  <path
     id="path48"
     fill="#575a89"
     transform="translate(-112.51651 -63.02104)"
     d="M899.52357,798.893s-14.15906,11.92341-21.61119,11.1782-21.6112-.74521-15.64949,7.45213,30.55376,12.66863,40.98675,13.41385,33.5346,1.49042,32.04418-2.98086S932.313,802.619,926.35126,801.1286,899.52357,798.893,899.52357,798.893Z" />
  <path
     id="path50"
     fill="#575a89"
     transform="translate(-112.51651 -63.02104)"
     d="M980.789,787.18642s-10.43362,15.29007-17.81186,16.57509-21.01635,5.09036-13.07089,11.38386,32.8344,3.991,43.08382,1.90486,32.70137-7.57707,30.06409-11.48328-9.68074-23.60393-15.82367-23.43727S980.789,787.18642,980.789,787.18642Z" />
  <path
     id="path52"
     fill="#2f2e41"
     transform="translate(-112.51651 -63.02104)"
     d="M891.2294,568.5168s-9.591,65.684-7.35532,77.60739,3.72607,30.55375,3.72607,30.55375-1.49042,15.64948,0,23.10162,10.433,78.24742,10.433,79.73785-1.49043,5.9617,0,9.68777,4.47128.74521,0,6.70692-1.49043,7.45214-.74521,7.45214,29.80854,2.98085,31.299,0-.74522-3.72607,0-7.45214,1.49042-4.47128,2.98085-5.21649,4.47128.74521,2.23564-2.98086-7.45213-8.19734-5.96171-10.433-.74521-18.63033-.74521-18.63033-1.49043-36.51547-2.23564-58.87187,6.70692-45.458,6.70692-45.458a85.26363,85.26363,0,0,0,19.37555,49.92931c19.37555,23.10162,29.06333,66.324,29.06333,66.324s4.47128,6.70692,2.23564,12.66863-8.94256,2.23564-2.23564,5.96171,29.80854-1.49043,32.04418-3.72607-2.98085-5.21649-1.49043-11.1782,7.45214-4.47128,2.23564-7.45213-6.70692-2.23565-6.70692-5.2165-13.41384-67.81443-34.27982-86.44477l-1.49043-67.81443s18.63034-47.69366-.74521-52.16494S891.2294,568.5168,891.2294,568.5168Z" />
  <path
     id="path54"
     fill="#a0616a"
     transform="translate(-112.51651 -63.02104)"
     d="M904.74006,392.00638s12.66863,31.299,9.68778,35.77025,36.51546-14.90427,36.51546-14.90427-12.66863-31.299-12.66863-35.025S904.74006,392.00638,904.74006,392.00638Z" />
  <circle
     id="circle56"
     fill="#a0616a"
     r="27.5729"
     cy="309.23718"
     cx="801.53873" />
  <path
     id="path58"
     fill="#6c63ff"
     transform="translate(-112.51651 -63.02104)"
     d="M950.9433,400.20373s-19.37555-2.23564-29.06333,9.68777-11.1782,14.90427-11.1782,14.90427-23.10162,37.26068-18.63034,55.891a53.90649,53.90649,0,0,1,2.98086,5.21649c1.49042,2.98086,1.49042,44.71281,0,51.41973s-2.98086,8.94257-1.49043,18.63034-11.92342,25.33726,3.72607,28.31811,27.5729.74522,32.78939-5.9617.74522-11.17821,17.13991-11.17821,26.82769-11.1782,26.82769-11.1782-8.19735-8.94256-5.21649-10.433,0-5.21649-1.49043-8.94256-1.49043-6.70692.74521-6.70692.74522-1.49043-.74521-5.2165,26.08247-67.81443,9.68777-86.44476-24.592-29.06333-24.592-29.06333S955.41458,397.96809,950.9433,400.20373Z" />
  <path
     id="path60"
     fill="#a0616a"
     transform="translate(-112.51651 -63.02104)"
     d="M908.46613,470.999v32.7894L884.6193,582.781s-15.64949,40.98674,0,40.98674,14.811-39.12023,14.811-39.12023l33.62785-59.248s13.41384-46.94845,11.92341-50.67452S908.46613,470.999,908.46613,470.999Z" />
  <path
     id="path62"
     fill="#6c63ff"
     transform="translate(-112.51651 -63.02104)"
     d="M921.13476,422.56013s-22.3564,8.94256-16.3947,32.7894,0,23.10162,0,23.10162,30.55376-2.98086,40.24153,3.72606l2.23564-8.94256S956.1598,421.81492,921.13476,422.56013Z" />
  <path
     id="path64"
     fill="#2f2e41"
     transform="translate(-112.51651 -63.02104)"
     d="M904.64008,351.55863a11.00137,11.00137,0,0,1-10.33394-1.60811c-2.809-2.3144-4.0005-6.58471-2.34813-9.82763,1.42688-2.80037,4.47892-4.33669,7.40558-5.48244a68.82993,68.82993,0,0,1,20.1708-4.55454c3.29659-.23446,6.75883-.19731,9.70069,1.30864,1.45563.74513,2.71991,1.82055,4.16154,2.59242,2.6508,1.41927,5.73546,1.73482,8.60017,2.6483A21.52613,21.52613,0,0,1,955.152,348.7277a25.93875,25.93875,0,0,1,1.62042,6.00275,33.43529,33.43529,0,0,1-1.73891,16.73774c-3.17662,8.4578-9.83912,15.852-10.21514,24.87887-4.07791-2.95853-5.59006-8.29853-8.85792-12.133a16.50328,16.50328,0,0,0-9.4191-5.4634,5.24614,5.24614,0,0,1-2.80764-1.02373,4.52018,4.52018,0,0,1-1.02536-2.39214l-2.79027-13.17414c-.56785-2.68112-1.28546-5.60425-3.48916-7.23353a10.558,10.558,0,0,0-4.54771-1.60216,71.33929,71.33929,0,0,0-11.65011-1.06224" />
</svg>
