<?xml version="1.0" encoding="UTF-8" standalone="no"?>
<svg
   xmlns:dc="http://purl.org/dc/elements/1.1/"
   xmlns:cc="http://creativecommons.org/ns#"
   xmlns:rdf="http://www.w3.org/1999/02/22-rdf-syntax-ns#"
   xmlns:svg="http://www.w3.org/2000/svg"
   xmlns="http://www.w3.org/2000/svg"
   xmlns:sodipodi="http://sodipodi.sourceforge.net/DTD/sodipodi-0.dtd"
   xmlns:inkscape="http://www.inkscape.org/namespaces/inkscape"
   id="59904e4f-d552-4f96-882a-6a294bb87dd0"
   data-name="Layer 1"
   width="1110.6562"
   height="831.81708"
   viewBox="0 0 1110.6562 831.8171"
   version="1.1"
   sodipodi:docname="to_do_list_a49b.svg"
   inkscape:version="0.92.4 (5da689c313, 2019-01-14)">
  <metadata
     id="metadata1899">
    <rdf:RDF>
      <cc:Work
         rdf:about="">
        <dc:format>image/svg+xml</dc:format>
        <dc:type
           rdf:resource="http://purl.org/dc/dcmitype/StillImage" />
        <dc:title>to do list</dc:title>
      </cc:Work>
    </rdf:RDF>
  </metadata>
  <sodipodi:namedview
     pagecolor="#ffffff"
     bordercolor="#666666"
     borderopacity="1"
     objecttolerance="10"
     gridtolerance="10"
     guidetolerance="10"
     inkscape:pageopacity="0"
     inkscape:pageshadow="2"
     inkscape:window-width="1920"
     inkscape:window-height="1018"
     id="namedview1897"
     showgrid="false"
     inkscape:zoom="0.41903677"
     inkscape:cx="1347.6959"
     inkscape:cy="-20.034305"
     inkscape:window-x="-8"
     inkscape:window-y="-8"
     inkscape:window-maximized="1"
     inkscape:current-layer="59904e4f-d552-4f96-882a-6a294bb87dd0"
     fit-margin-top="0"
     fit-margin-left="0"
     fit-margin-right="0"
     fit-margin-bottom="0" />
  <defs
     id="defs1590">
    <linearGradient
       id="a0337754-c09d-4430-960e-4dcfef50d642"
       x1="880.14001"
       y1="757.48999"
       x2="880.14001"
       y2="274.88"
       gradientUnits="userSpaceOnUse"
       gradientTransform="rotate(18,750.0567,347.8053)">
      <stop
         offset="0"
         stop-color="gray"
         stop-opacity="0.25"
         id="stop1583" />
      <stop
         offset="0.54"
         stop-color="gray"
         stop-opacity="0.12"
         id="stop1585" />
      <stop
         offset="1"
         stop-color="gray"
         stop-opacity="0.1"
         id="stop1587" />
    </linearGradient>
  </defs>
  <title
     id="title1592">to do list</title>
  <path
     style="opacity:0.1;fill:#6c63ff"
     inkscape:connector-curvature="0"
     d="m 463.87424,11.320484 c 48.1928,-21.46834 108.94265,-9.2895301 161.34299,10.69098 164.59076,62.763189 289.12674,193.400776 389.79567,328.112436 36.4434,48.76852 71.3015,99.92402 87.0953,155.87291 32.0807,113.94011 -28.6117,237.62888 -140.57099,286.52468 -38.09722,16.64182 -80.47824,25.10982 -123.07179,30.99577 -75.7258,10.45094 -154.57299,12.96907 -231.19571,-3.91502 C 552.63692,807.56042 500.44237,785.94339 450.09,761.63386 309.55409,693.70101 179.65189,602.26377 83.404081,486.72677 41.165453,436.05423 4.640832,378.24827 0.34341904,317.04479 -3.9539943,255.8413 32.297871,191.90445 96.887493,177.50919 c 26.717917,-5.95517 55.449807,-3.2228 83.515737,-0.31777 41.30468,4.29401 83.18404,8.89041 123.4975,3.42023 41.63396,-5.65098 95.15292,-25.35721 100.50762,-66.0754 5.73084,-43.655733 11.35463,-81.836592 59.46589,-103.215766 z"
     id="path1594" />
  <path
     style="fill:#6c63ff"
     inkscape:connector-curvature="0"
     d="m 242.76547,368.02234 c 0,0 12.15844,-3.86184 20.9449,3.81926 0,0 -4.8247,5.14069 -17.5156,0.93305 z"
     id="path1596" />
  <path
     style="opacity:0.1"
     inkscape:connector-curvature="0"
     d="m 599.51017,750.15544 -107.39343,5.91302 -156.9559,8.5883 c -2.08573,-11.47622 -5.50466,-27.36014 -9.95593,-46.34483 C 309.96815,652.84955 282.98055,549.96436 258.6508,459.35113 231.22008,357.24725 207.17451,270.74294 207.17451,270.74294 l 37.36931,1.1963 305.25197,9.73449 z"
     id="path1754" />
  <path
     style="fill:#ffffff"
     inkscape:connector-curvature="0"
     d="m 603.5754,744.11609 -107.39343,5.913 -156.9559,8.5883 c -2.08574,-11.47621 -5.50467,-27.36014 -9.95593,-46.34483 -15.23676,-65.46237 -42.22435,-168.34756 -66.5541,-258.96079 -27.43073,-102.10388 -51.4763,-188.6082 -51.4763,-188.6082 l 37.3693,1.19631 305.25199,9.73448 z"
     id="path1756" />
  <path
     style="opacity:0.1"
     inkscape:connector-curvature="0"
     d="m 603.5754,744.11609 -107.39343,5.913 A 754.4,754.4 0 0 1 329.27014,712.27256 C 314.03338,646.81019 287.04579,543.925 262.71604,453.31177 l -14.107,-187.41189 305.25199,9.73448 z"
     id="path1758" />
  <path
     style="fill:#6c63ff"
     inkscape:connector-curvature="0"
     d="m 682.01243,744.21952 c 0,0 -176.69784,39.51117 -391.5431,-52.16669 l -36.68659,-487.3809 89.25811,12.94589 308.54747,44.76749 29.81524,472.44659 z"
     id="path1760" />
  <path
     style="opacity:0.1"
     inkscape:connector-curvature="0"
     d="M 681.40356,734.8319 C 645.94354,725.20288 605.63325,711.92652 566.577,693.88444 524.29405,674.44695 483.59415,649.42534 451.99421,617.56086 425.61082,590.93478 404.27839,564.39368 387.56353,535.42045 344.07583,460.17945 331.73476,368.75103 343.07889,217.63018 l 308.54748,44.76749 z"
     id="path1762" />
  <path
     style="fill:#ffffff"
     inkscape:connector-curvature="0"
     d="m 797.93077,746.11293 c 0,0 -116.25447,-14.09444 -223.10888,-63.39732 -42.27368,-19.46603 -83.0304,-44.47455 -114.58279,-76.32358 -26.38339,-26.62608 -47.71582,-53.16718 -64.43068,-82.14041 -53.83529,-93.19743 -59.91954,-211.06648 -32.51355,-436.311855 0,0 167.40921,102.856445 378.08144,65.152365 0,0 -62.22844,397.49515 56.55446,593.0208 z"
     id="path1764" />
  <path
     style="opacity:0.1"
     inkscape:connector-curvature="0"
     d="m 574.82189,682.71561 c -42.27368,-19.46603 -83.0304,-44.47455 -114.58279,-76.32358 -26.38339,-26.62608 -47.71582,-53.16718 -64.43068,-82.14041 66.46631,15.78162 87.28185,-16.60093 87.28185,-16.60093 23.25089,91.79782 91.73162,175.06492 91.73162,175.06492 z"
     id="path1766" />
  <g
     id="g3307"
     transform="rotate(2,-51.897148,47.994323)">
    <rect
       id="rect1780"
       transform="rotate(-2.8)"
       height="30.15"
       width="30.15"
       y="297.52087"
       x="639.98907"
       style="opacity:0.3;fill:#6c63ff" />
    <rect
       id="rect1782"
       transform="rotate(-2.8)"
       height="30.15"
       width="30.15"
       y="342.94934"
       x="641.67603"
       style="opacity:0.3;fill:#6c63ff" />
    <rect
       id="rect1784"
       transform="rotate(-2.8)"
       height="30.15"
       width="30.15"
       y="428.67856"
       x="639.98828"
       style="opacity:0.3;fill:#6c63ff" />
    <rect
       id="rect1788"
       transform="rotate(-2.8)"
       height="30.15"
       width="30.15"
       y="388.97232"
       x="639.99347"
       style="opacity:0.3;fill:#6c63ff" />
    <g
       id="g3326">
      <path
         id="path1770"
         d="m 408.09752,279.49288 c 0,0 100.31718,20.20383 224.59543,-1.25159 l 1.27115,9.49832 c 0,0 -54.6669,39.03387 -229.17423,3.28841 z"
         inkscape:connector-curvature="0"
         style="opacity:0.3" />
      <path
         id="path1772"
         d="m 408.50624,321.92946 c 0,0 100.31719,20.20383 224.59268,-1.24198 l 1.27115,9.49832 c 0,0 -54.67107,39.08469 -229.19077,3.34609 z"
         inkscape:connector-curvature="0"
         style="opacity:0.3" />
      <path
         id="path1774"
         d="m 407.0511,367.12933 c 0,0 100.31719,20.20383 224.59267,-1.24198 l 1.27115,9.49833 c 0,0 -54.72047,39.03931 -229.19077,3.34608 z"
         inkscape:connector-curvature="0"
         style="opacity:0.3" />
      <path
         id="path1776"
         d="m 409.31401,406.87267 c 0,0 100.31719,20.20382 224.59268,-1.24198 l 1.27115,9.49832 c 0,0 -54.66555,39.06546 -229.19353,3.3557 z"
         inkscape:connector-curvature="0"
         style="opacity:0.3" />
      <path
         id="path1778"
         d="m 409.72133,449.35046 c 0,0 100.31718,20.20382 224.59267,-1.24198 l 1.27115,9.49832 c 0,0 -54.67516,39.06271 -229.19077,3.34608 z"
         inkscape:connector-curvature="0"
         style="opacity:0.1" />
      <path
         style="opacity:0.3;fill:#6c63ff"
         inkscape:connector-curvature="0"
         d="m 436.84373,179.2429 c 0,0 95.39774,39.53676 202.58109,14.13654 l 0.50089,22.12515 c 0,0 -100.93806,18.7126 -209.88746,-12.52814 z"
         id="path1768" />
      <rect
         style="opacity:0.3;fill:#6c63ff"
         x="639.99524"
         y="475.00131"
         width="30.15"
         height="30.15"
         transform="rotate(-2.8)"
         id="rect1786" />
      <path
         style="fill:#3acc6c"
         inkscape:connector-curvature="0"
         d="m 669.15137,282.39136 -11.15373,-10.04345 a 1.63,1.63 0 0 1 -0.12005,-2.30228 l 2.18498,-2.43195 a 1.62,1.62 0 0 1 2.30227,-0.12006 l 7.5168,6.76394 14.48628,-16.09036 a 1.64,1.64 0 0 1 2.30503,-0.12967 l 2.42919,2.19459 a 1.62,1.62 0 0 1 0.12006,2.30228 l -17.76855,19.7369 a 1.63,1.63 0 0 1 -2.30228,0.12006 z"
         id="path1862" />
      <path
         style="fill:#3acc6c"
         inkscape:connector-curvature="0"
         d="m 674.27936,371.42379 -11.15373,-10.04345 a 1.63,1.63 0 0 1 -0.12006,-2.30228 l 2.18498,-2.43195 a 1.64,1.64 0 0 1 2.31189,-0.1173 l 7.50718,6.76117 14.48218,-16.11233 a 1.64,1.64 0 0 1 2.30504,-0.12967 l 2.41958,2.19183 a 1.63,1.63 0 0 1 0.12966,2.30504 l -17.76855,19.7369 a 1.65,1.65 0 0 1 -2.31189,0.1173 z"
         id="path1864" />
      <path
         style="fill:#3acc6c"
         inkscape:connector-curvature="0"
         d="m 672.99806,327.89436 -11.15373,-10.04345 a 1.64,1.64 0 0 1 -0.12967,-2.30504 l 2.19459,-2.42919 a 1.62,1.62 0 0 1 2.30228,-0.12006 l 7.5168,6.76393 14.49454,-16.11919 a 1.63,1.63 0 0 1 2.30228,-0.12005 l 2.43195,2.18497 a 1.65,1.65 0 0 1 0.1173,2.3119 l -17.78368,19.75336 a 1.63,1.63 0 0 1 -2.30227,0.12006 z"
         id="path1866" />
      <path
         style="fill:#3acc6c"
         inkscape:connector-curvature="0"
         d="m 676.10929,411.47989 -11.15373,-10.04345 a 1.63,1.63 0 0 1 -0.12006,-2.30228 l 2.18498,-2.43195 a 1.63,1.63 0 0 1 2.30228,-0.12006 l 7.5168,6.76394 14.48627,-16.09036 a 1.65,1.65 0 0 1 2.31465,-0.12691 l 2.41958,2.19183 a 1.62,1.62 0 0 1 0.12005,2.30228 l -17.75893,19.73966 a 1.65,1.65 0 0 1 -2.31189,0.1173 z"
         id="path1868" />
    </g>
  </g>
</svg>
