<?xml version="1.0" encoding="UTF-8" standalone="no"?>
<svg
   xmlns:dc="http://purl.org/dc/elements/1.1/"
   xmlns:cc="http://creativecommons.org/ns#"
   xmlns:rdf="http://www.w3.org/1999/02/22-rdf-syntax-ns#"
   xmlns:svg="http://www.w3.org/2000/svg"
   xmlns="http://www.w3.org/2000/svg"
   xmlns:sodipodi="http://sodipodi.sourceforge.net/DTD/sodipodi-0.dtd"
   xmlns:inkscape="http://www.inkscape.org/namespaces/inkscape"
   id="bcfca5f0-de0d-458d-b0e1-91947ae777e0"
   data-name="Layer 1"
   width="741.54443"
   height="526.52924"
   viewBox="0 0 741.54447 526.52924"
   version="1.1"
   sodipodi:docname="user_flow_vr6w.svg"
   inkscape:version="0.92.4 (5da689c313, 2019-01-14)">
  <metadata
     id="metadata1022">
    <rdf:RDF>
      <cc:Work
         rdf:about="">
        <dc:format>image/svg+xml</dc:format>
        <dc:type
           rdf:resource="http://purl.org/dc/dcmitype/StillImage" />
        <dc:title>user flow</dc:title>
      </cc:Work>
    </rdf:RDF>
  </metadata>
  <sodipodi:namedview
     pagecolor="#ffffff"
     bordercolor="#666666"
     borderopacity="1"
     objecttolerance="10"
     gridtolerance="10"
     guidetolerance="10"
     inkscape:pageopacity="0"
     inkscape:pageshadow="2"
     inkscape:window-width="1920"
     inkscape:window-height="1018"
     id="namedview1020"
     showgrid="false"
     fit-margin-top="0"
     fit-margin-left="0"
     fit-margin-right="0"
     fit-margin-bottom="0"
     inkscape:zoom="1.2176582"
     inkscape:cx="397.81482"
     inkscape:cy="240.54007"
     inkscape:window-x="-8"
     inkscape:window-y="-8"
     inkscape:window-maximized="1"
     inkscape:current-layer="bcfca5f0-de0d-458d-b0e1-91947ae777e0" />
  <defs
     id="defs822">
    <linearGradient
       id="f84b3174-8b9f-4dd8-bfe3-ee12ab3891b1"
       x1="790.72998"
       y1="596.5"
       x2="943.72998"
       y2="596.5"
       gradientUnits="userSpaceOnUse"
       gradientTransform="translate(-202.18516,-262.62883)">
      <stop
         offset="0"
         stop-color="gray"
         stop-opacity="0.25"
         id="stop815" />
      <stop
         offset="0.54"
         stop-color="gray"
         stop-opacity="0.12"
         id="stop817" />
      <stop
         offset="1"
         stop-color="gray"
         stop-opacity="0.1"
         id="stop819" />
    </linearGradient>
  </defs>
  <title
     id="title824">user flow</title>
  <path
     d="m 19.574841,4.6111743 c 0,0 146.999999,5.9999997 166.999999,0 0,0 -11,245.9999957 -7,253.9999957 0,0 -162.999999,9 -174.999999,0 -12,-9 15,-253.9999957 15,-253.9999957 z"
     stroke-miterlimit="10"
     id="path875"
     inkscape:connector-curvature="0"
     style="fill:#ffffff;stroke:#33313f;stroke-width:3;stroke-miterlimit:10" />
  <path
     d="m 41.574841,50.611174 c 0,0 67.999999,107.999996 90.999999,117.999996"
     stroke-miterlimit="10"
     id="path877"
     inkscape:connector-curvature="0"
     style="fill:#ffffff;stroke:#33313f;stroke-width:3;stroke-miterlimit:10" />
  <path
     d="m 132.57484,50.611174 c 0,0 -64.999999,84.999996 -74.999999,113.999996"
     stroke-miterlimit="10"
     id="path879"
     inkscape:connector-curvature="0"
     style="fill:#ffffff;stroke:#33313f;stroke-width:3;stroke-miterlimit:10" />
  <path
     d="M 41.574841,209.61117"
     stroke-miterlimit="10"
     id="path881"
     inkscape:connector-curvature="0"
     style="fill:#ffffff;stroke:#33313f;stroke-width:3;stroke-miterlimit:10" />
  <path
     d="M 126.57484,209.61117 H 47.574841 c -6,0 -6,28 -6,28 h 84.999999 z"
     stroke-miterlimit="10"
     id="path883"
     inkscape:connector-curvature="0"
     style="fill:#ffffff;stroke:#33313f;stroke-width:3;stroke-miterlimit:10" />
  <path
     d="m 295.57484,4.6111743 c 0,0 141,-7 167,0 0,0 -11,245.9999957 -7,253.9999957 0,0 -180.16,14.09 -175,0 11,-30 15,-253.9999957 15,-253.9999957 z"
     stroke-miterlimit="10"
     id="path885"
     inkscape:connector-curvature="0"
     style="fill:#ffffff;stroke:#33313f;stroke-width:3;stroke-miterlimit:10" />
  <path
     d="m 350.52484,23.371174 c 0,0 31.38,49.85 42,54.46"
     stroke-miterlimit="10"
     id="path887"
     inkscape:connector-curvature="0"
     style="fill:#ffffff;stroke:#33313f;stroke-width:3;stroke-miterlimit:10" />
  <path
     d="m 392.52484,23.371174 c 0,0 -30,39.23 -34.62,52.62"
     stroke-miterlimit="10"
     id="path889"
     inkscape:connector-curvature="0"
     style="fill:#ffffff;stroke:#33313f;stroke-width:3;stroke-miterlimit:10" />
  <path
     d="m 428.33484,109.61117 h -106 c -8,0 -8,28 -8,28 h 114 z"
     stroke-miterlimit="10"
     id="path891"
     inkscape:connector-curvature="0"
     style="fill:#ffffff;stroke:#33313f;stroke-width:3;stroke-miterlimit:10" />
  <path
     d="m 413.86484,198.61117 h -79 c -6,0 -6,28 -6,28 h 85 z"
     stroke-miterlimit="10"
     id="path893"
     inkscape:connector-curvature="0"
     style="fill:#ffffff;stroke:#33313f;stroke-width:3;stroke-miterlimit:10" />
  <path
     d="m 428.33484,150.61117 c 8.05,0 -96.62,9 -106,0 -4.94,-4.73 -8,28 -8,28 h 114 z"
     stroke-miterlimit="10"
     id="path895"
     inkscape:connector-curvature="0"
     style="fill:#ffffff;stroke:#33313f;stroke-width:3;stroke-miterlimit:10" />
  <polyline
     points="488.87 373.36 494.87 379.36 505.87 364.36"
     stroke-miterlimit="10"
     id="polyline897"
     style="fill:#ffffff;stroke:#33313f;stroke-width:3;stroke-miterlimit:10"
     transform="translate(-127.78516,-161.24883)" />
  <path
     d="m 564.57484,6.6111743 c 0,0 140,16.9999997 167,0 0,0 -11,245.9999957 -7,253.9999957 0,0 -185.8,10.41 -175,0 27,-26 15,-253.9999957 15,-253.9999957 z"
     stroke-miterlimit="10"
     id="path899"
     inkscape:connector-curvature="0"
     style="fill:#ffffff;stroke:#33313f;stroke-width:3;stroke-miterlimit:10" />
  <path
     d="m 584.02484,50.111174 c 0,0 20.17,32 27,35"
     stroke-miterlimit="10"
     id="path901"
     inkscape:connector-curvature="0"
     style="fill:#ffffff;stroke:#33313f;stroke-width:3;stroke-miterlimit:10" />
  <path
     d="m 611.02484,50.111174 c 0,0 -19.28,25.26 -22.21,33.82"
     stroke-miterlimit="10"
     id="path903"
     inkscape:connector-curvature="0"
     style="fill:#ffffff;stroke:#33313f;stroke-width:3;stroke-miterlimit:10" />
  <path
     d="m 699.33484,116.11117 h -106 c -8,0 -8,14.82 -8,14.82 h 114 z"
     stroke-miterlimit="10"
     id="path905"
     inkscape:connector-curvature="0"
     style="fill:#ffffff;stroke:#33313f;stroke-width:3;stroke-miterlimit:10" />
  <path
     d="m 641.54484,160.11117 h 55.21 c 8,0 8,14.82 8,14.82 h 0.24"
     stroke-miterlimit="10"
     id="path907"
     inkscape:connector-curvature="0"
     style="fill:#ffffff;stroke:#33313f;stroke-width:3;stroke-miterlimit:10" />
  <path
     d="m 699.33484,137.80117 c 8.05,0 -96.62,4.76 -106,0 -4.94,-2.5 -8,14.81 -8,14.81 h 114 z"
     stroke-miterlimit="10"
     id="path909"
     inkscape:connector-curvature="0"
     style="fill:#ffffff;stroke:#33313f;stroke-width:3;stroke-miterlimit:10" />
  <path
     d="m 565.41484,25.371174 c 0,0 155.2,11.47 165.18,3.85"
     stroke-miterlimit="10"
     id="path911"
     inkscape:connector-curvature="0"
     style="fill:#ffffff;stroke:#33313f;stroke-width:3;stroke-miterlimit:10" />
  <path
     d="m 711.06484,18.281174 c 2.12,-0.45 4.3,0.19 6.45,0.52 2.15,0.33 4.59,0.29 6.15,-1.21"
     stroke-miterlimit="10"
     id="path913"
     inkscape:connector-curvature="0"
     style="fill:#ffffff;stroke:#33313f;stroke-width:2;stroke-miterlimit:10" />
  <path
     d="m 709.99484,22.221174 a 57.24,57.24 0 0 0 13.58,0.75"
     stroke-miterlimit="10"
     id="path915"
     inkscape:connector-curvature="0"
     style="fill:#ffffff;stroke:#33313f;stroke-width:2;stroke-miterlimit:10" />
  <path
     d="m 709.97484,27.811174 a 103.08,103.08 0 0 1 11.61,-1.3"
     stroke-miterlimit="10"
     id="path917"
     inkscape:connector-curvature="0"
     style="fill:#ffffff;stroke:#33313f;stroke-width:2;stroke-miterlimit:10" />
  <path
     d="m 574.14484,20.371174 a 13.19,13.19 0 0 0 6,1.21 5.59,5.59 0 0 0 3.74,-0.81 c 1.31,-1.06 1.42,-3 1.42,-4.69 a 3.52,3.52 0 0 0 -0.22,-1.51 3,3 0 0 0 -1.07,-1.12 c -2.47,-1.72 -7.06,-2.42 -9.95,-1.25 -3.96,1.6 -3.32,6.32 0.08,8.17 z"
     stroke-miterlimit="10"
     id="path919"
     inkscape:connector-curvature="0"
     style="fill:#ffffff;stroke:#33313f;stroke-width:2;stroke-miterlimit:10" />
  <path
     d="m 618.39484,43.851174 c -0.58,7.4 1.19,14.75 2.38,22.08 a 144.3,144.3 0 0 1 1.78,28 q -23.67,1.44 -47.4,0.69 c 1.47,0.05 1.1,-33.44 1.24,-36.52 0.18,-3.94 -0.66,-10.72 3.91,-12.2 4.8,-1.57 11.56,-0.6 16.6,-0.84 q 10.74,-0.5 21.49,-1.21 z"
     stroke-miterlimit="10"
     id="path921"
     inkscape:connector-curvature="0"
     style="fill:#ffffff;stroke:#33313f;stroke-width:3;stroke-miterlimit:10" />
  <path
     d="m 209.57484,119.61117 c 0,0 39,-2 46,0"
     stroke-miterlimit="10"
     id="path923"
     inkscape:connector-curvature="0"
     style="fill:none;stroke:#33313f;stroke-width:3;stroke-miterlimit:10" />
  <path
     d="m 255.57484,98.611174 c 0,0 17,16.999996 17,20.999996 0,4 -22,18 -22,18"
     stroke-miterlimit="10"
     id="path925"
     inkscape:connector-curvature="0"
     style="fill:none;stroke:#33313f;stroke-width:3;stroke-miterlimit:10" />
  <path
     d="m 479.57484,119.61117 c 0,0 39,-2 46,0"
     stroke-miterlimit="10"
     id="path927"
     inkscape:connector-curvature="0"
     style="fill:none;stroke:#33313f;stroke-width:3;stroke-miterlimit:10" />
  <path
     d="m 525.57484,98.611174 c 0,0 17,16.999996 17,20.999996 0,4 -22,18 -22,18"
     stroke-miterlimit="10"
     id="path929"
     inkscape:connector-curvature="0"
     style="fill:none;stroke:#33313f;stroke-width:3;stroke-miterlimit:10" />
  <path
     d="m 740.30484,225.51117 a 18.09,18.09 0 0 0 -0.45,-3.59 c -0.91,-3.37 -2.93,-7.46 -6.28,-8.48 a 52.83,52.83 0 0 1 -9.93,-4.2 c -0.61,-10.72 1.86,-21.69 -0.83,-32.08 -1,-3.8 -2.64,-7.44 -3.09,-11.34 -0.55,-4.83 0.78,-10 -1.15,-14.46 -1.52,-3.51 -4.86,-6 -8.46,-7.3 -3.6,-1.3 -7.46,-1.64 -11.27,-2 -4.8,-0.4 -20.34,-2.24 -25.75,2.06 v 0 a 5.35,5.35 0 0 0 -1,1 v 0 a 3.51,3.51 0 0 0 -0.33,0.52 0.35,0.35 0 0 1 0,0.08 6.32,6.32 0 0 0 -0.27,0.65 v 0 a 3.76,3.76 0 0 0 -0.16,0.74 1.9,1.9 0 0 0 0,0.25 4.58,4.58 0 0 0 0,0.53 v 0.26 c 0,0.19 0,0.37 0,0.55 0,0.18 0,0.15 0,0.22 0.07,0.89 0.21,1.8 0.21,2.69 a 5.85,5.85 0 0 1 -0.12,1.32 9.28,9.28 0 0 1 -1.66,3.23 v 0 l -0.18,0.26 -0.33,0.48 -0.26,0.41 -0.22,0.36 c -0.1,0.17 -0.18,0.34 -0.27,0.52 l -0.15,0.28 a 6.11,6.11 0 0 0 -0.3,0.85 5.54,5.54 0 0 0 0,2.65 10.15,10.15 0 0 0 1.36,3.16 c 0.25,0.41 0.53,0.81 0.81,1.21 0.28,0.4 0.46,0.63 0.7,0.94 a 20,20 0 0 0 -0.22,2.81 20.65,20.65 0 0 0 7.91,16.25 62,62 0 0 1 -0.13,12.69 c -0.1,0.89 -0.2,1.77 -0.32,2.65 -0.12,0.88 -0.22,1.47 -0.33,2.2 a 10.2,10.2 0 0 1 -4.38,-0.34 20.41,20.41 0 0 0 -2,-0.77 c -2.92,-0.72 -5.89,2.18 -8.76,1.3 0,0.13 -0.09,0.26 -0.13,0.4 a 4,4 0 0 0 -2,-0.59 c -1.7,-0.08 -3.1,-1.32 -4.34,-2.49 l -3.8,-3.59 a 3.85,3.85 0 0 1 -0.66,-0.74 4.93,4.93 0 0 1 -0.46,-1.23 14.21,14.21 0 0 0 -3.69,-5.29 2.5,2.5 0 0 0 -1.1,-0.79 1.35,1.35 0 0 0 -0.49,0 c -0.11,-0.14 -0.21,-0.28 -0.33,-0.41 -0.27,-0.29 -0.55,-0.57 -0.84,-0.83 -1.81,-1.68 -2,-3.12 -3.58,-5 a 47.17,47.17 0 0 1 -3.73,-5.65 c -0.14,-1 -0.32,-2.12 -0.54,-3.22 a 41.08,41.08 0 0 0 -2.18,-7.29 l 1.37,-1.5 v -1.49 l 2.44,-2.85 -0.17,-0.15 3,-2.82 -3,-0.11 -1.4,1.94 -0.11,-0.1 -2.5,2.5 -1.75,0.2 -0.23,0.24 c -1.45,-2.16 -3,-3.34 -4.38,-3.06 -2.33,0.48 -3.49,5 -3.12,10.91 l -6.93,7.25 -0.78,0.82 -3.58,4.59 2.81,2.7 4.31,-4 0.69,-0.75 4.29,-4.65 c 0,0.15 0.07,0.3 0.1,0.45 a 12.08,12.08 0 0 0 -0.22,2.16 c 0,0.85 0.79,1.46 1.19,2.22 a 6.08,6.08 0 0 1 1,3.41 c 0,0.42 -0.18,0.83 -0.19,1.26 a 4.77,4.77 0 0 0 0.93,2.59 q 2.51,4.2 5,8.4 c 0.34,0.59 0.7,1.18 1,1.76 a 0.41,0.41 0 0 1 0,0.09 4.25,4.25 0 0 0 1.34,1.53 18.38,18.38 0 0 0 1.65,6.08 c 0.18,0.37 0.37,0.74 0.57,1.1 a 35.24,35.24 0 0 0 4.71,6.12 l 2.39,2.67 c 2.34,2.63 4.69,5.25 7.24,7.68 a 9.67,9.67 0 0 0 3.25,2.26 3.63,3.63 0 0 0 3.63,-0.52 c 0,1.24 0,2.48 0,3.71 a 2.65,2.65 0 0 1 1.75,1.14 2.55,2.55 0 0 1 -0.17,2.16 c -2.09,5.39 -4.21,10.82 -7.4,15.66 a 33,33 0 0 1 6.2,4.72 27.41,27.41 0 0 1 3.24,4.38 c 0.08,0.73 0.15,1.47 0.2,2.2 0.74,11.92 -3.87,23.75 -8,35.11 -1.18,3.21 -2.49,6.59 -2.38,9.93 a 20.63,20.63 0 0 0 -2.25,1.62 c 0.82,2.13 0.5,4 0.42,6.33 a 11.25,11.25 0 0 1 -0.84,4 c -0.39,0.89 -1,1.72 -1.43,2.57 -2.59,4.57 -3.17,10 -3.69,15.21 -0.31,3.16 0.92,7 -0.52,9.82 -2.46,4.85 -4.65,10 -5.05,15.38 a 16.06,16.06 0 0 1 -0.45,3.6 c -0.31,1 -0.87,1.85 -1.15,2.83 a 12.06,12.06 0 0 0 -0.19,4 38.23,38.23 0 0 1 -2.11,14.11 c -1.25,3.58 -2.62,7.4 -1.64,11.07 a 15.53,15.53 0 0 0 -4.23,9.28 14.66,14.66 0 0 1 -0.33,2.65 13.2,13.2 0 0 1 -1.19,2.56 22.4,22.4 0 0 0 -2.73,12 c -3,4.06 -4.49,9.09 -5.38,14.08 -0.89,4.99 -1.29,10.07 -2.43,15 -1.51,6.53 -4.26,13.12 -4.81,19.79 -3.24,2.08 -4.63,6.09 -5.26,9.88 -0.63,3.79 -0.72,7.76 -2.3,11.27 -0.82,1.82 -2,3.45 -2.78,5.3 a 23.86,23.86 0 0 0 -1.21,4.57 c -0.48,2.45 -0.9,5.16 -0.3,7.5 a 11.29,11.29 0 0 1 -2.93,2.24 c 0.15,-0.62 0.29,-1.25 0.39,-1.88 -2.58,2.35 -7.25,1.53 -9.32,4.34 a 4.24,4.24 0 0 0 1,5.79 8.16,8.16 0 0 0 2.08,0.89 c 4.95,1.59 10.14,3.21 15.27,2.36 a 4.63,4.63 0 0 0 1.73,-0.56 5.37,5.37 0 0 0 1.61,-1.86 l 2.31,-3.66 a 47.55,47.55 0 0 0 5.61,1.32 q 0.28,2.39 0.39,4.8 c 1,0.2 2.34,0.25 2.81,-0.67 a 2.45,2.45 0 0 0 0.18,-1.11 c 0,-0.72 0.09,-1.66 0.16,-2.62 h 0.2 a 19,19 0 0 0 8.85,-1.8 c -1.08,-8.85 2.45,-17.51 5.52,-25.89 3.23,-8.82 6,-17.81 8.78,-26.79 2,-6.31 4.22,-12.44 6.17,-18.76 q 3.72,-12 7.43,-24 c 1.09,-3.52 2.17,-7 3.42,-10.5 a 164.43,164.43 0 0 1 9.26,-20.64 c 1,-1.88 2,-3.75 2.83,-5.72 1,-2.39 1.71,-4.89 2.5,-7.35 a 115,115 0 0 1 6.29,-14.79 l 0.18,-0.37 c 0.81,3.31 1.63,6.68 2.16,10 a 37.72,37.72 0 0 1 0.17,12.36 c -0.48,2.79 -1.39,5.55 -1.27,8.37 0.15,3.92 2.23,7.46 3.26,11.24 a 43.48,43.48 0 0 1 1.13,8.6 c 0.27,4.49 2.72,9.54 1,13.71 -5.34,13.21 -2.75,28.13 -5.81,42 -1.56,7.12 -6.37,13.82 -6,21.1 q 0.4,7.75 1.36,15.46 a 14.42,14.42 0 0 0 1.09,4.56 20.52,20.52 0 0 0 1.37,2.23 c -0.43,0.18 -0.81,0.63 -1.12,1.58 a 6,6 0 0 0 2.22,7 9.66,9.66 0 0 0 2.88,1 15.67,15.67 0 0 0 4.18,0.58 8.24,8.24 0 0 0 1.31,-0.17 46.24,46.24 0 0 0 4.74,1.7 q 0,0.62 0.12,1.23 a 1.47,1.47 0 0 0 0.53,1.13 1.44,1.44 0 0 0 0.8,0.15 h 5.43 c 0,-0.45 0,-0.91 0,-1.36 a 4.43,4.43 0 0 0 3.45,-1.13 5.1,5.1 0 0 0 1,-2.07 q 2.22,-7.54 4.42,-15.07 a 45.7,45.7 0 0 0 1.55,-6.49 44.34,44.34 0 0 0 0.59,-10.72 c -1.92,-18.43 2.32,-36.92 0.94,-55.4 a 132.16,132.16 0 0 1 1.7,-33.23 c 0.45,-2.48 1,-5 1.2,-7.47 0.43,-4.66 -0.1,-9.37 0.22,-14 0.12,-1.62 0.34,-3.23 0.54,-4.84 a 232.42,232.42 0 0 0 2.34,-30.16 92.15,92.15 0 0 0 -0.61,-10 5.89,5.89 0 0 0 2.72,-1.6 c 0.9,-1.17 0.67,-2.79 0.66,-4.27 0,-3.54 1.49,-6.89 2.68,-10.23 a 123.37,123.37 0 0 0 3.79,-14 49.23,49.23 0 0 0 1.68,-11.75 c 0,-0.4 0,-0.8 -0.06,-1.21 a 3,3 0 0 0 0.91,-1 5.62,5.62 0 0 0 0.48,-1.85 c 0.37,-2.56 0.73,-5.11 1.1,-7.67 q 0.39,-2.75 0.79,-5.5 1.59,-11.08 3.17,-22.18 c 0.28,-1.93 0.55,-3.85 0.83,-5.78 l 0.82,-5.73 c 0.1,-0.68 0.19,-1.36 0.27,-2.05 2.48,-3.95 0.14,-9.4 -0.11,-14.04 z m -26.49,83.08 c -1.19,-2.79 -2.29,-5.66 -2,-8.69 h -0.1 a 4.53,4.53 0 0 0 -0.14,-2.82 c -0.31,-0.74 -0.84,-1.36 -1.17,-2.08 a 7.63,7.63 0 0 1 -0.54,-2.81 76.77,76.77 0 0 1 1.42,-18.13 c 0.13,-0.71 0.27,-1.41 0.41,-2.12 a 5.36,5.36 0 0 0 1.13,-0.88 8.19,8.19 0 0 0 1.29,-2 q 1.69,-3.4 3.12,-6.93 c 0.31,-0.77 0.76,-1.64 1.53,-1.83 -0.16,5.85 0.44,11.82 -2,17.1 a 10.64,10.64 0 0 0 -1,2.7 c -0.22,1.48 0.4,3 0.18,4.48 -0.11,0.76 -0.44,1.48 -0.58,2.23 a 2.2,2.2 0 0 0 0.59,2.12 1.55,1.55 0 0 0 0.42,0.23 c -0.06,0.4 -0.11,0.81 -0.14,1.2 -0.09,0.82 -0.12,1.59 -0.17,2.07 a 64.42,64.42 0 0 0 -0.28,7.35 c 0,2.65 0.11,5.31 0.06,8 a 5.3,5.3 0 0 1 -0.38,2.27 3.89,3.89 0 0 1 -0.76,1 c -0.28,-0.89 -0.6,-1.68 -0.89,-2.46 z"
     id="path943"
     inkscape:connector-curvature="0"
     style="fill:url(#f84b3174-8b9f-4dd8-bfe3-ee12ab3891b1)" />
  <polygon
     points="766.37,320.9 764.8,323.3 766.01,324.14 769.37,321.01 "
     id="polygon945"
     style="fill:#33313f"
     transform="translate(-127.78516,-161.24883)" />
  <polygon
     points="746.19,340.67 757.09,329.26 760.8,325.37 762.54,325.17 765.04,322.68 766.51,323.97 764.08,326.81 764.13,328.3 760.33,332.42 749.63,344.03 748.94,344.77 744.64,348.75 741.84,346.06 745.4,341.49 "
     id="polygon947"
     style="fill:#65617d"
     transform="translate(-127.78516,-161.24883)" />
  <polygon
     points="760.33,332.42 749.63,344.03 746.19,340.67 757.09,329.26 "
     id="polygon949"
     style="fill:#33313f"
     transform="translate(-127.78516,-161.24883)" />
  <ellipse
     cx="583.26202"
     cy="300.10828"
     rx="5.6399999"
     ry="15.97"
     transform="rotate(-11.58)"
     id="ellipse951"
     style="fill:#fbbebe" />
  <path
     d="m 681.43484,513.99117 a 6,6 0 0 0 2.21,6.94 9.83,9.83 0 0 0 2.88,1 15.53,15.53 0 0 0 4.16,0.58 c 1.74,-0.09 3.4,-0.76 5.12,-1 a 0.84,0.84 0 0 1 0.59,0.09 0.87,0.87 0 0 1 0.23,0.69 26.43,26.43 0 0 0 0.22,2.95 1.13,1.13 0 0 0 1.32,1.27 h 5.41 a 52,52 0 0 0 -1.57,-14.14 3.07,3.07 0 0 0 -0.4,-1 3.19,3.19 0 0 0 -1.72,-1 9.72,9.72 0 0 0 -4.2,-0.73 c -1.74,0.22 -3.21,1.36 -4.7,2.3 -1.49,0.94 -3.52,1.77 -5.33,1.28 -1.81,-0.49 -3.3,-2.01 -4.22,0.77 z"
     id="path953"
     inkscape:connector-curvature="0"
     style="fill:#3f3d56" />
  <path
     d="m 601.81484,509.60117 a 14.92,14.92 0 0 1 -5.46,3.71 l -0.93,0.45 a 0.5,0.5 0 0 0 -0.3,0.25 0.54,0.54 0 0 0 0.09,0.45 6.49,6.49 0 0 0 7.34,2.67 3.93,3.93 0 0 0 1.62,-0.84 5.36,5.36 0 0 0 1.24,-3.23 6.75,6.75 0 0 0 -0.15,-3.68 c -1.36,-3.14 -1.87,-1.72 -3.45,0.22 z"
     id="path955"
     inkscape:connector-curvature="0"
     style="fill:#fbbebe" />
  <path
     d="m 622.63484,521.92117 a 2.32,2.32 0 0 1 -0.18,1.11 c -0.46,0.92 -1.78,0.86 -2.8,0.67 a 67.25,67.25 0 0 0 -1.22,-10.11 c -1.94,-0.09 -3.35,1.76 -4.38,3.4 l -2.68,4.26 a 5.44,5.44 0 0 1 -1.61,1.85 4.65,4.65 0 0 1 -1.72,0.56 c -5.12,0.84 -10.29,-0.77 -15.23,-2.36 a 8.27,8.27 0 0 1 -2.07,-0.88 4.22,4.22 0 0 1 -1,-5.78 c 2.06,-2.8 6.72,-2 9.29,-4.32 a 22.67,22.67 0 0 1 -1.32,4.77 c 3.46,-0.52 5.77,-3.68 8.56,-5.79 a 5.09,5.09 0 0 1 2.44,-1.17 5.4,5.4 0 0 1 2,0.22 23.39,23.39 0 0 1 8.8,4.33 c 1.05,0.83 2.69,2 3.15,3.28 0.49,1.53 -0.04,4.33 -0.03,5.96 z"
     id="path957"
     inkscape:connector-curvature="0"
     style="fill:#3f3d56" />
  <circle
     cx="691.42487"
     cy="171.31117"
     r="20.66"
     id="circle959"
     style="fill:#fbbebe" />
  <path
     d="m 732.12484,293.30117 a 48.83,48.83 0 0 1 -1.68,11.71 120.22,120.22 0 0 1 -3.77,14 c -1.19,3.33 -2.69,6.67 -2.68,10.2 0,1.47 0.24,3.09 -0.65,4.26 a 6.34,6.34 0 0 1 -2.93,1.67 3.64,3.64 0 0 0 -2.45,2.18 15.3,15.3 0 0 1 -2.09,-4.57 q -2.68,-8.24 -5,-16.57 a 2.15,2.15 0 0 1 0.13,-2 2.38,2.38 0 0 1 0.88,-0.49 9,9 0 0 0 2.76,-1.79 4.08,4.08 0 0 0 0.93,-1.18 5.3,5.3 0 0 0 0.38,-2.27 c 0,-2.64 0,-5.29 -0.06,-7.93 a 66.34,66.34 0 0 1 0.27,-7.33 c 0,-0.49 0.09,-1.25 0.17,-2.07 0.15,-1.58 0.45,-3.39 1.31,-4 1.26,-0.86 5.06,0.29 6.51,0.48 2.48,0.35 4.95,0.75 7.41,1.22 a 20.34,20.34 0 0 1 0.56,4.48 z"
     id="path961"
     inkscape:connector-curvature="0"
     style="fill:#3f3d56" />
  <path
     d="m 648.69484,194.45117 c -0.8,1.6 -2.72,2.36 -4.2,3.38 l -5.07,3.48 a 3.42,3.42 0 0 1 -2.5,0.86 3.3,3.3 0 0 1 -1.87,-1.75 l -0.06,-0.09 -1,-1.75 -5,-8.38 a 4.86,4.86 0 0 1 -0.93,-2.59 c 0,-0.42 0.15,-0.83 0.2,-1.25 a 6.19,6.19 0 0 0 -1,-3.4 c -0.4,-0.76 -1.21,-1.37 -1.18,-2.21 a 7.88,7.88 0 0 1 0.56,-3.24 6.6,6.6 0 0 1 2.18,-2.34 c 0.47,-0.34 1,-0.66 1.45,-1 a 2.89,2.89 0 0 1 0.88,-0.39 c 0.82,-0.17 1.64,0.51 2.48,0.54 3.62,2.42 5,7 7.85,10.31 1.6,1.87 1.76,3.31 3.57,5 a 9.29,9.29 0 0 1 0.83,0.83 5.34,5.34 0 0 1 0.91,1.3 c 0.32,0.85 2.32,1.87 1.9,2.69 z"
     id="path963"
     inkscape:connector-curvature="0"
     style="fill:#3f3d56" />
  <path
     d="m 684.15484,192.03117 c 1.49,3.15 2.65,6.61 2.22,10.07 a 6.32,6.32 0 0 1 -0.86,2.65 c -1.44,2.21 -4.46,2.6 -7.1,2.74 a 4.19,4.19 0 0 0 -3.07,1 2.78,2.78 0 0 0 0.19,3.42 7.48,7.48 0 0 0 3.06,2 c 4.16,1.84 8.64,3.35 13.17,2.92 2.1,-0.2 4.14,-0.8 6.23,-1.11 a 62.67,62.67 0 0 1 6.82,-0.35 c 2.72,-0.1 5.43,-0.37 8.14,-0.64 l 7.17,-0.71 a 1.58,1.58 0 0 0 1.07,-0.39 c 0.54,-0.62 -0.15,-1.53 -0.8,-2 -3.82,-2.83 -8.67,-4.76 -10.83,-9 -1,-2 -1.32,-4.37 -2.06,-6.54 -0.74,-2.17 -1.92,-4.1 -2.37,-6.31 a 41.58,41.58 0 0 1 -0.33,-5.81 7.74,7.74 0 0 0 -2,-5.32 c -1.42,-1.33 -3.49,-1.67 -5.44,-1.76 -4.78,-0.2 -9.86,0.94 -13.26,4.31 -0.91,0.91 -1.68,1.95 -2.63,2.82 -0.95,0.87 -2.21,1.06 -1.59,2.14 0.62,1.08 1.83,1.74 2.49,2.7 a 22.38,22.38 0 0 1 1.78,3.17 z"
     id="path965"
     inkscape:connector-curvature="0"
     style="fill:#fbbebe" />
  <path
     d="m 724.89484,221.07117 a 114.62,114.62 0 0 1 -6.08,22.53 83.28,83.28 0 0 0 -3.6,10.11 c -0.78,3.1 -0.62,6.42 -1.34,9.53 -0.88,3.86 -1.76,7.75 -2.47,11.65 a 76.31,76.31 0 0 0 -1.42,18.08 7.62,7.62 0 0 0 0.54,2.8 c 0.33,0.72 0.87,1.34 1.17,2.07 a 4.93,4.93 0 0 1 -0.27,4 11.71,11.71 0 0 1 -2.06,3.13 c -9.33,2.78 -19.29,1.86 -29,2.45 -9,0.55 -18,2.39 -26.82,0.85 -1,-4 0.66,-8.18 2.1,-12.08 4.14,-11.33 8.74,-23.13 8,-35 a 36.12,36.12 0 0 0 -0.48,-4.12 c -1.44,-8.41 0.13,-17.12 2.66,-25.28 1.58,-5.07 1.51,-10.49 1.14,-15.78 a 28.71,28.71 0 0 1 -0.07,-5.16 9.22,9.22 0 0 1 1.88,-4.83 l 0.15,-0.21 c 0.11,-0.17 0.44,-0.07 0.74,0 v 0 a 0.65,0.65 0 0 0 0.5,0 0.23,0.23 0 0 1 0.11,-0.07 0.28,0.28 0 0 1 0.29,0 c 0.23,0.15 0.35,0.62 0.85,0.71 a 20,20 0 0 0 2.23,0.22 11.93,11.93 0 0 1 2.66,0.38 h 0.12 a 7.91,7.91 0 0 0 3.88,-0.33 10.38,10.38 0 0 0 2.38,-0.92 16.58,16.58 0 0 1 1.88,-0.63 c 0.92,-0.56 0.72,-3.14 0.91,-4.19 a 11.51,11.51 0 0 1 0.74,-3.1 5.26,5.26 0 0 1 4.28,-2.49 21.77,21.77 0 0 1 5.14,0.46 c 3.72,0.53 7.54,0.43 11.21,1.29 1.84,0.43 3.84,1.09 5.54,0.25 0.45,0.1 0.52,0.51 0.52,1 a 5.47,5.47 0 0 1 -0.28,1.37 c -0.63,2.76 1.54,5.29 3.53,7.3 a 11.54,11.54 0 0 0 3,2.35 c 1,0.46 2,0.65 3,1.15 a 5.3,5.3 0 0 1 2,1.83 7.42,7.42 0 0 1 1.14,2.91 17.33,17.33 0 0 1 -0.4,5.77 z"
     id="path967"
     inkscape:connector-curvature="0"
     style="fill:#3f3d56" />
  <path
     d="m 724.89484,221.07117 a 114.62,114.62 0 0 1 -6.08,22.53 83.28,83.28 0 0 0 -3.6,10.11 c -0.78,3.1 -0.62,6.42 -1.34,9.53 -0.88,3.86 -1.76,7.75 -2.47,11.65 -0.21,0.12 -0.42,0.22 -0.64,0.32 a 15.5,15.5 0 0 1 -3.92,1.27 24.39,24.39 0 0 1 -7.33,-0.24 l -14.3,-1.87 c -5.7,-0.76 -11.77,-1.69 -16,-5.55 -2.34,-2.12 -3.89,-4.92 -5.57,-7.63 a 36.12,36.12 0 0 0 -0.48,-4.12 c -1.44,-8.41 0.13,-17.12 2.66,-25.28 1.58,-5.07 1.51,-10.49 1.14,-15.78 a 28.71,28.71 0 0 1 -0.07,-5.16 9.22,9.22 0 0 1 1.88,-4.83 7.61,7.61 0 0 1 0.89,-0.21 v 0 a 4.22,4.22 0 0 1 0.61,-0.07 h 0.29 a 4.36,4.36 0 0 1 1,0.12 c 0.67,0.17 1.29,0.53 1.95,0.77 h 0.12 a 7.94,7.94 0 0 0 2.66,0.38 c 1.32,0 2.68,-0.22 4,-0.3 a 7.36,7.36 0 0 1 4.74,0.84 27.43,27.43 0 0 1 2.64,2.42 11.87,11.87 0 0 0 3.34,1.81 35.32,35.32 0 0 0 26.61,-0.57 5.32,5.32 0 0 1 2.67,-0.67 5.13,5.13 0 0 1 1.93,0.81 c 0.59,0.35 1.19,0.69 1.79,1 a 7.42,7.42 0 0 1 1.14,2.91 17.33,17.33 0 0 1 -0.26,5.81 z"
     id="path969"
     inkscape:connector-curvature="0"
     style="opacity:0.1" />
  <path
     d="m 733.59484,214.45117 a 52.55,52.55 0 0 1 -11.39,-5 5.06,5.06 0 0 0 -1.93,-0.82 5.23,5.23 0 0 0 -2.67,0.68 35.37,35.37 0 0 1 -26.61,0.56 11.63,11.63 0 0 1 -3.34,-1.81 28.56,28.56 0 0 0 -2.63,-2.42 c -3.29,-2.13 -7.84,0.38 -11.53,-1 a 20.24,20.24 0 0 0 -1.95,-0.77 c -2.91,-0.72 -5.87,2.17 -8.74,1.3 a 47.43,47.43 0 0 0 -2.34,8.92 97.08,97.08 0 0 0 -0.65,10.52 c -0.06,2.1 -0.11,4.21 0,6.32 a 2.65,2.65 0 0 1 1.75,1.14 2.54,2.54 0 0 1 -0.17,2.14 c -2.09,5.38 -4.2,10.8 -7.38,15.62 a 32.82,32.82 0 0 1 6.18,4.72 c 3.51,3.7 5.22,8.88 9,12.3 4.26,3.86 10.34,4.79 16,5.56 l 14.28,1.96 a 24.39,24.39 0 0 0 7.33,0.24 15.5,15.5 0 0 0 3.92,-1.27 7,7 0 0 0 2.18,-1.44 8.23,8.23 0 0 0 1.29,-2 c 1.12,-2.26 2.16,-4.57 3.1,-6.91 0.34,-0.83 0.84,-1.81 1.74,-1.87 5.29,-4.78 10.3,-9.68 15.59,-14.46 a 34.53,34.53 0 0 0 5.69,-6 c 2.64,-3.89 0.24,-9.41 0,-14.1 a 17.27,17.27 0 0 0 -0.44,-3.58 c -0.93,-3.43 -2.95,-7.51 -6.28,-8.53 z"
     id="path971"
     inkscape:connector-curvature="0"
     style="fill:#6c63ff" />
  <path
     d="m 648.69484,194.45117 c -0.8,1.6 -2.72,2.36 -4.2,3.38 l -5.07,3.48 a 3.42,3.42 0 0 1 -2.5,0.86 3.3,3.3 0 0 1 -1.87,-1.75 c 0,-0.24 0,-0.48 0,-0.72 a 6.65,6.65 0 0 1 0.32,-2.39 7.54,7.54 0 0 1 2.24,-2.88 18.15,18.15 0 0 1 6.57,-4 2.2,2.2 0 0 1 1.21,-0.12 1.52,1.52 0 0 1 0.43,0.19 5.34,5.34 0 0 1 0.91,1.3 c 0.38,0.81 2.38,1.83 1.96,2.65 z"
     id="path973"
     inkscape:connector-curvature="0"
     style="opacity:0.1" />
  <path
     d="m 660.63484,205.02117 c -1.7,-0.08 -3.09,-1.32 -4.32,-2.49 l -3.8,-3.58 a 3.6,3.6 0 0 1 -0.66,-0.74 5.26,5.26 0 0 1 -0.45,-1.22 14.34,14.34 0 0 0 -3.68,-5.28 2.59,2.59 0 0 0 -1.1,-0.79 2.19,2.19 0 0 0 -1.21,0.13 18.15,18.15 0 0 0 -6.57,4 7.39,7.39 0 0 0 -2.24,2.88 6.65,6.65 0 0 0 -0.32,2.39 18.36,18.36 0 0 0 1.75,7.68 c 0.18,0.37 0.36,0.74 0.56,1.1 a 35.93,35.93 0 0 0 4.7,6.1 l 2.38,2.67 c 2.34,2.61 4.68,5.23 7.23,7.65 a 9.5,9.5 0 0 0 3.23,2.26 3.61,3.61 0 0 0 3.72,-0.61 5.23,5.23 0 0 0 1.06,-1.9 c 1.55,-4 3,-8.15 3.09,-12.46 a 44.61,44.61 0 0 0 -0.21,-5.17 c -0.17,-1.83 -1.45,-2.54 -3.16,-2.62 z"
     id="path975"
     inkscape:connector-curvature="0"
     style="fill:#6c63ff" />
  <path
     d="m 721.23484,345.02117 a 231.06,231.06 0 0 1 -2.13,30.07 c -0.2,1.6 -0.42,3.21 -0.53,4.83 -0.33,4.66 0.2,9.36 -0.23,14 -0.24,2.5 -0.75,5 -1.2,7.45 a 131.91,131.91 0 0 0 -1.69,33.14 c 1.37,18.43 -2.85,36.87 -0.94,55.25 a 44.59,44.59 0 0 1 -0.58,10.69 46.49,46.49 0 0 1 -1.55,6.47 q -2.21,7.52 -4.4,15 a 5.25,5.25 0 0 1 -1,2.07 4.71,4.71 0 0 1 -3.75,1.12 c -5.77,-0.19 -11.19,-2.67 -16.43,-5.11 a 5.38,5.38 0 0 1 -1.65,-1 c -1.09,-1.13 -1,-2.92 -1.48,-4.4 -0.48,-1.48 -1.79,-2.89 -2.53,-4.43 a 14.93,14.93 0 0 1 -1.09,-4.54 q -1,-7.69 -1.36,-15.42 c -0.37,-7.26 4.42,-13.94 6,-21 3.05,-13.88 0.47,-28.76 5.8,-41.94 1.67,-4.15 -0.76,-9.19 -1,-13.67 a 42.55,42.55 0 0 0 -1.12,-8.58 c -1,-3.77 -3.1,-7.3 -3.25,-11.2 -0.12,-2.82 0.79,-5.57 1.27,-8.36 a 38,38 0 0 0 -0.17,-12.32 c -0.53,-3.36 -1.35,-6.72 -2.16,-10 l -0.18,0.37 a 113,113 0 0 0 -6.27,14.75 c -0.79,2.45 -1.5,4.94 -2.5,7.33 -0.82,2 -1.82,3.82 -2.81,5.7 a 162.73,162.73 0 0 0 -9.24,20.58 c -1.24,3.46 -2.32,7 -3.41,10.47 q -3.69,12 -7.4,24 c -1.95,6.31 -4.2,12.41 -6.15,18.71 -2.77,9 -5.54,17.92 -8.76,26.71 -3.06,8.36 -6.58,17 -5.51,25.83 a 19,19 0 0 1 -8.82,1.79 51.78,51.78 0 0 1 -15,-3.65 11.5,11.5 0 0 1 -5.17,-3.08 c -2.23,-2.71 -1.67,-6.68 -1,-10.12 a 23.57,23.57 0 0 1 1.21,-4.56 c 0.75,-1.85 1.95,-3.48 2.77,-5.29 1.58,-3.5 1.68,-7.45 2.3,-11.24 0.62,-3.79 2,-7.78 5.24,-9.85 0.54,-6.65 3.29,-13.23 4.8,-19.73 1.14,-4.93 1.52,-10 2.41,-15 0.89,-5 2.36,-10 5.38,-14 a 22.3,22.3 0 0 1 2.71,-12 12.85,12.85 0 0 0 1.19,-2.55 14.44,14.44 0 0 0 0.33,-2.64 15.54,15.54 0 0 1 4.21,-9.26 c -1,-3.66 0.4,-7.46 1.64,-11 a 37.87,37.87 0 0 0 2.1,-14.07 12.32,12.32 0 0 1 0.2,-4 c 0.28,-1 0.83,-1.85 1.14,-2.82 a 14.84,14.84 0 0 0 0.45,-3.59 c 0.4,-5.4 2.58,-10.5 5,-15.33 1.43,-2.82 0.21,-6.65 0.52,-9.8 0.52,-5.22 1.09,-10.61 3.67,-15.17 a 25.83,25.83 0 0 0 1.43,-2.57 10.92,10.92 0 0 0 0.83,-4 c 0.09,-2.28 0.41,-4.19 -0.41,-6.31 5.35,-4.46 12.66,-5.7 19.61,-5.95 6.95,-0.25 14,0.33 20.81,-1.16 2,-0.44 4,-1.07 6.11,-1.37 4.8,-0.7 9.65,0.4 14.38,1.48 -0.33,3 0.77,5.88 1.95,8.67 a 93.07,93.07 0 0 1 7.41,35.6 z"
     id="path977"
     inkscape:connector-curvature="0"
     style="fill:#33313f" />
  <path
     d="m 697.68484,347.28117 -11.48,25.84 c -0.53,-3.36 -1.35,-6.72 -2.16,-10 l -0.18,0.37 0.05,-0.54 6.26,-13.78 z"
     id="path979"
     inkscape:connector-curvature="0"
     style="opacity:0.1" />
  <path
     d="m 732.12484,293.30117 a 4.53,4.53 0 0 1 -2.28,0.85 11.4,11.4 0 0 1 -3.75,-0.51 l -8.95,-2.27 a 3.78,3.78 0 0 1 -0.82,-0.28 c 0.15,-1.58 0.45,-3.39 1.31,-4 1.26,-0.86 5.06,0.29 6.51,0.48 2.48,0.35 4.95,0.75 7.41,1.22 a 20.34,20.34 0 0 1 0.57,4.51 z"
     id="path981"
     inkscape:connector-curvature="0"
     style="opacity:0.1" />
  <path
     d="m 739.72484,233.80117 c 0.2,0.83 0.47,1.65 0.62,2.49 a 19.17,19.17 0 0 1 -0.2,6.18 l -0.82,5.72 -0.82,5.76 -3.17,22.13 -0.79,5.48 -1.09,7.65 a 5.82,5.82 0 0 1 -0.48,1.84 3.86,3.86 0 0 1 -3.14,1.85 11.38,11.38 0 0 1 -3.74,-0.51 l -8.95,-2.26 a 2.83,2.83 0 0 1 -1.09,-0.45 2.18,2.18 0 0 1 -0.59,-2.11 c 0.13,-0.76 0.46,-1.47 0.58,-2.23 0.22,-1.48 -0.41,-3 -0.18,-4.47 a 10.41,10.41 0 0 1 1,-2.7 c 3,-6.63 1.26,-14.36 2.28,-21.56 a 32.64,32.64 0 0 1 6.84,-15.45 43.5,43.5 0 0 1 7.65,-7.51 c 1.13,-0.87 2.91,-2.67 4.31,-3 1.87,-0.38 1.49,1.89 1.78,3.15 z"
     id="path983"
     inkscape:connector-curvature="0"
     style="fill:#6c63ff" />
  <path
     d="m 671.62484,147.66117 c -0.66,2.09 0.37,4.4 -0.1,6.55 -0.52,2.36 -2.73,4 -3.36,6.37 -1,3.61 2.06,6.9 4.29,9.9 8.3,11.13 7.21,26.55 4.37,40.15 a 206.21,206.21 0 0 1 -9.45,32 c -1.24,3.22 -2.63,6.51 -5.08,8.93 4.6,-1.32 9.48,-2.65 14.1,-1.37 5.84,1.62 10.88,7.29 16.79,6 3.57,-0.8 6.06,-4 9.27,-5.7 6,-3.23 13.22,-1.2 19.92,-0.17 a 7.65,7.65 0 0 0 4.35,-0.22 7.28,7.28 0 0 0 2.64,-2.42 24.67,24.67 0 0 0 5.13,-13.3 17,17 0 0 0 -4.91,-13.13 c -1.41,-1.34 -3.11,-2.42 -4.2,-4 a 12.26,12.26 0 0 1 -1.65,-6.06 c -0.8,-11 1.88,-22.22 -0.87,-32.86 -1,-3.79 -2.64,-7.42 -3.08,-11.31 -0.55,-4.82 0.77,-10 -1.15,-14.42 -1.52,-3.5 -4.85,-6 -8.43,-7.27 a 42.21,42.21 0 0 0 -11.24,-2 c -5.48,-0.48 -25.05,-2.82 -27.34,4.33 z"
     id="path985"
     inkscape:connector-curvature="0"
     style="fill:#33313f" />
  <g
     id="g993"
     style="opacity:0.1"
     transform="translate(-127.78516,-161.24883)">
    <path
       d="m 879,473.26 a 206.9,206.9 0 0 1 -9.4,31.87 c 0.69,-1.37 1.28,-2.81 1.83,-4.24 a 206.33,206.33 0 0 0 9.45,-32 c 2.84,-13.59 3.93,-29 -4.37,-40.15 -2,-2.65 -4.57,-5.53 -4.47,-8.66 a 10.48,10.48 0 0 0 -1.7,3.15 c -1,3.61 2.06,6.9 4.29,9.9 8.31,11.11 7.22,26.53 4.37,40.13 z"
       transform="translate(-74.4,-101.38)"
       id="path987"
       inkscape:connector-curvature="0" />
    <path
       d="m 873.83,415.82 a 10,10 0 0 0 1.76,-3.37 17.14,17.14 0 0 0 -0.12,-4.46 4.82,4.82 0 0 0 -1.66,2.3 c -0.56,1.77 0.09,3.71 0.02,5.53 z"
       transform="translate(-74.4,-101.38)"
       id="path989"
       inkscape:connector-curvature="0" />
    <path
       d="m 933.43,505.9 a 7.34,7.34 0 0 1 -2.65,2.43 7.61,7.61 0 0 1 -4.34,0.22 c -6.7,-1 -14,-3.07 -19.92,0.17 -3.21,1.74 -5.71,4.9 -9.27,5.69 -5.92,1.32 -11,-4.34 -16.8,-6 -4.13,-1.15 -8.49,-0.2 -12.67,1 a 17.49,17.49 0 0 1 -3.3,4.79 c 4.6,-1.32 9.48,-2.65 14.1,-1.37 5.84,1.62 10.88,7.29 16.79,6 3.56,-0.8 6.06,-4 9.27,-5.7 6,-3.23 13.22,-1.2 19.92,-0.17 a 7.65,7.65 0 0 0 4.35,-0.22 7.28,7.28 0 0 0 2.64,-2.42 27.49,27.49 0 0 0 4.14,-7.92 29.4,29.4 0 0 1 -2.26,3.5 z"
       transform="translate(-74.4,-101.38)"
       id="path991"
       inkscape:connector-curvature="0" />
  </g>
</svg>
