<?xml version="1.0" encoding="UTF-8" standalone="no"?>
<svg
   xmlns:dc="http://purl.org/dc/elements/1.1/"
   xmlns:cc="http://creativecommons.org/ns#"
   xmlns:rdf="http://www.w3.org/1999/02/22-rdf-syntax-ns#"
   xmlns:svg="http://www.w3.org/2000/svg"
   xmlns="http://www.w3.org/2000/svg"
   xmlns:sodipodi="http://sodipodi.sourceforge.net/DTD/sodipodi-0.dtd"
   xmlns:inkscape="http://www.inkscape.org/namespaces/inkscape"
   inkscape:version="1.0 (4035a4fb49, 2020-05-01)"
   sodipodi:docname="completed_steps_yurw.svg"
   version="1.1"
   viewBox="0 0 906.38778 540.52883"
   height="540.52883"
   width="906.38778"
   data-name="Layer 1"
   id="ab03870f-e999-49c0-989a-dd3dcf1198ff">
  <metadata
     id="metadata103">
    <rdf:RDF>
      <cc:Work
         rdf:about="">
        <dc:format>image/svg+xml</dc:format>
        <dc:type
           rdf:resource="http://purl.org/dc/dcmitype/StillImage" />
      </cc:Work>
    </rdf:RDF>
  </metadata>
  <defs
     id="defs101" />
  <sodipodi:namedview
     inkscape:current-layer="ab03870f-e999-49c0-989a-dd3dcf1198ff"
     inkscape:window-maximized="1"
     inkscape:window-y="-8"
     inkscape:window-x="1912"
     inkscape:cy="270.2644"
     inkscape:cx="453.19388"
     inkscape:zoom="0.90027694"
     showgrid="false"
     id="namedview99"
     inkscape:window-height="1027"
     inkscape:window-width="1920"
     inkscape:pageshadow="2"
     inkscape:pageopacity="0"
     guidetolerance="10"
     gridtolerance="10"
     objecttolerance="10"
     borderopacity="1"
     bordercolor="#666666"
     pagecolor="#ffffff" />
  <title
     id="title10">completed_steps</title>
  <rect
     id="rect12"
     fill="#3f3d56"
     height="2"
     width="689.99951"
     y="251.0952"
     x="3.2133493" />
  <rect
     id="rect14"
     fill="#3f3d56"
     height="2.01266"
     width="179.12675"
     y="292.94519"
     x="45.37178" />
  <rect
     id="rect16"
     fill="#3f3d56"
     height="2.01266"
     width="179.12675"
     y="307.03381"
     x="45.37178" />
  <rect
     id="rect18"
     fill="#3f3d56"
     height="2.01266"
     width="179.12675"
     y="321.12244"
     x="45.37178" />
  <rect
     id="rect20"
     fill="#d0cde1"
     height="32.735851"
     width="40.290279"
     y="242.39108"
     x="49.014782" />
  <path
     id="path22"
     fill="#3f3d56"
     d="m 83.429389,270.09064 h -41.969 v -34.41461 h 41.969 z m -40.29028,-1.67876 h 38.61155 v -31.05707 h -38.61155 z" />
  <circle
     id="circle24"
     fill="#6c63ff"
     r="8"
     cy="253.23402"
     cx="9.1107693" />
  <rect
     id="rect26"
     fill="#3f3d56"
     height="2.01266"
     width="179.12675"
     y="292.94519"
     x="728.37177" />
  <rect
     id="rect28"
     fill="#3f3d56"
     height="2.01266"
     width="179.12675"
     y="307.03381"
     x="728.37177" />
  <rect
     id="rect30"
     fill="#3f3d56"
     height="2.01266"
     width="179.12675"
     y="321.12244"
     x="728.37177" />
  <rect
     id="rect32"
     fill="#d0cde1"
     height="32.735851"
     width="40.290279"
     y="242.39108"
     x="732.01477" />
  <path
     id="path34"
     fill="#3f3d56"
     d="m 766.42939,270.09064 h -41.969 v -34.41461 h 41.969 z m -40.29028,-1.67876 h 38.61155 v -31.05707 h -38.61155 z" />
  <circle
     id="circle36"
     fill="#6c63ff"
     r="8"
     cy="253.23402"
     cx="692.11078" />
  <rect
     id="rect38"
     fill="#3f3d56"
     height="2.01266"
     width="179.12675"
     y="209.23264"
     x="387.3718" />
  <rect
     id="rect40"
     fill="#3f3d56"
     height="2.01266"
     width="179.12675"
     y="195.14401"
     x="387.3718" />
  <rect
     y="181.0554"
     id="rect42"
     fill="#3f3d56"
     height="2.01266"
     width="179.12675"
     x="387.3718" />
  <rect
     id="rect44"
     fill="#d0cde1"
     height="32.735851"
     width="40.290279"
     y="229.06355"
     x="391.0148" />
  <path
     id="path46"
     fill="#3f3d56"
     d="m 425.42939,268.51446 h -41.969 v -34.41465 h 41.969 z m -40.29028,-1.67876 h 38.61155 v -31.05709 h -38.61155 z" />
  <circle
     id="circle48"
     fill="#6c63ff"
     r="8"
     cy="250.95647"
     cx="351.11078" />
  <circle
     id="circle50"
     fill="#ffffff"
     r="18"
     cy="251.09525"
     cx="135.21312" />
  <path
     id="path52"
     fill="#6c63ff"
     d="m 135.19739,230.82063 a 19.91339,19.91339 0 1 0 19.91338,19.91339 19.91338,19.91338 0 0 0 -19.91338,-19.91339 z m -3.43514,28.82458 -8.56562,-8.56567 2.40259,-2.40256 6.1711,6.17113 13.02528,-13.0253 2.40254,2.40258 z" />
</svg>
